<svg id="svg" version="1.1" xmlns="http://www.w3.org/2000/svg" xmlns:xlink="http://www.w3.org/1999/xlink" width="400" height="400" viewBox="0, 0, 400,400"><g id="svgg"><path id="path0" d="M146.689 160.054 C 146.391 160.221,139.459 160.422,131.285 160.501 C 123.111 160.580,116.323 160.743,116.202 160.865 C 116.080 160.987,115.870 162.270,115.735 163.717 L 115.489 166.348 113.294 167.974 C 112.087 168.868,110.942 169.600,110.750 169.600 C 110.557 169.600,110.400 169.802,110.400 170.049 C 110.400 170.376,110.550 170.373,110.953 170.039 C 111.382 169.683,111.563 169.726,111.757 170.231 C 111.894 170.590,112.257 170.787,112.564 170.669 C 112.894 170.543,113.204 170.771,113.324 171.229 C 113.446 171.699,113.751 171.917,114.099 171.783 C 114.796 171.516,115.407 172.227,115.746 173.700 C 116.412 176.585,116.574 177.021,117.263 177.759 C 117.668 178.195,118.011 178.832,118.024 179.175 C 118.156 182.666,119.082 186.378,119.900 186.693 C 120.885 187.072,119.994 189.600,118.876 189.600 C 118.636 189.600,118.277 189.891,118.078 190.246 C 117.461 191.350,114.551 191.217,111.333 189.939 C 109.757 189.312,108.289 188.800,108.071 188.800 C 107.854 188.800,107.209 188.003,106.638 187.029 C 105.093 184.392,105.110 176.800,106.660 176.800 C 106.976 176.800,107.198 176.575,107.153 176.300 C 107.047 175.650,107.838 173.747,108.345 173.434 C 108.561 173.300,108.857 172.653,109.001 171.995 C 109.145 171.338,109.429 170.800,109.632 170.800 C 109.834 170.800,110.000 170.639,110.000 170.442 C 110.000 168.553,105.145 172.115,103.791 174.996 C 102.511 177.721,102.164 185.811,103.300 186.447 C 103.685 186.663,104.000 187.029,104.000 187.261 C 104.000 189.079,109.567 193.105,111.324 192.557 C 111.721 192.433,112.631 192.608,113.344 192.947 C 114.401 193.448,115.150 193.490,117.392 193.173 C 119.291 192.904,120.223 192.914,120.403 193.205 C 120.547 193.437,120.941 193.521,121.280 193.391 C 121.619 193.260,122.177 193.434,122.520 193.777 C 122.863 194.120,123.308 194.400,123.509 194.400 C 123.711 194.400,124.202 194.760,124.600 195.200 C 124.998 195.640,125.540 196.000,125.804 196.000 C 126.068 196.000,127.185 196.953,128.287 198.118 C 129.557 199.461,130.895 200.435,131.945 200.782 C 132.855 201.082,133.600 201.465,133.600 201.632 C 133.600 201.800,134.138 202.055,134.795 202.199 C 135.452 202.343,136.307 202.860,136.695 203.346 C 137.168 203.940,137.913 204.265,138.957 204.332 C 139.813 204.387,140.836 204.605,141.230 204.816 C 143.435 205.996,160.269 206.268,163.600 205.177 C 164.370 204.925,165.720 204.564,166.600 204.376 C 172.844 203.037,174.246 202.578,174.557 201.769 C 174.677 201.456,175.226 201.200,175.778 201.200 C 176.416 201.200,177.028 200.823,177.459 200.166 C 177.831 199.598,178.960 198.516,179.968 197.763 C 180.976 197.010,182.355 195.630,183.034 194.697 C 183.712 193.763,184.520 193.000,184.828 193.000 C 185.518 193.000,186.436 191.157,186.851 188.937 C 187.024 188.011,187.614 186.823,188.181 186.255 C 188.741 185.695,189.200 184.814,189.200 184.298 C 189.200 183.782,189.401 183.159,189.646 182.914 C 190.286 182.274,191.173 174.436,191.430 167.150 L 191.650 160.899 190.708 160.663 C 190.190 160.533,181.314 160.424,170.983 160.421 C 160.652 160.418,151.082 160.266,149.716 160.083 C 148.349 159.900,146.987 159.887,146.689 160.054 M209.187 161.016 C 208.827 161.449,208.763 162.625,208.954 165.306 C 209.098 167.338,209.319 170.800,209.444 173.000 C 209.569 175.200,209.835 177.171,210.036 177.380 C 210.236 177.589,210.400 178.558,210.400 179.534 C 210.400 181.904,211.173 184.357,212.070 184.838 C 212.472 185.052,212.800 185.571,212.800 185.990 C 212.800 186.410,212.942 186.841,213.116 186.948 C 213.290 187.056,213.476 187.790,213.529 188.580 C 213.649 190.362,214.290 192.115,214.723 191.848 C 215.087 191.623,217.200 193.719,217.200 194.306 C 217.200 194.734,219.583 196.800,220.077 196.800 C 220.255 196.800,220.406 197.025,220.413 197.300 C 220.437 198.276,222.286 199.890,224.229 200.631 C 226.368 201.447,227.669 202.365,227.371 202.848 C 227.267 203.015,227.811 203.050,228.581 202.926 C 229.744 202.737,230.209 202.900,231.343 203.896 C 232.457 204.875,233.085 205.102,234.781 205.140 C 235.922 205.166,236.978 205.261,237.128 205.352 C 238.985 206.482,254.786 206.351,257.400 205.184 C 259.551 204.225,263.603 203.189,264.818 203.289 C 265.674 203.359,266.184 203.220,266.190 202.916 C 266.201 202.372,268.716 200.400,269.399 200.400 C 269.643 200.400,270.454 199.770,271.200 199.000 C 271.995 198.180,272.947 197.600,273.499 197.600 C 274.190 197.600,274.555 197.274,274.867 196.380 C 275.581 194.331,280.059 192.833,283.275 193.568 C 286.159 194.226,293.596 191.725,294.472 189.802 C 294.723 189.251,295.125 188.795,295.364 188.789 C 298.532 188.711,299.226 173.697,296.067 173.591 C 295.920 173.586,295.170 172.690,294.400 171.600 C 293.017 169.642,289.678 167.978,288.240 168.529 C 287.984 168.628,287.355 168.369,286.843 167.954 C 286.330 167.539,286.013 167.200,286.138 167.200 C 286.262 167.200,285.917 166.754,285.372 166.208 C 284.626 165.462,284.444 164.966,284.636 164.201 C 285.171 162.069,284.182 160.893,281.666 160.667 C 275.397 160.105,209.681 160.421,209.187 161.016 M292.080 173.500 C 294.198 176.209,294.757 177.219,294.513 177.900 C 294.414 178.175,294.618 178.400,294.967 178.400 C 295.427 178.400,295.608 178.810,295.628 179.900 C 295.644 180.725,295.792 181.747,295.958 182.170 C 296.460 183.452,293.495 188.161,292.691 187.358 C 292.594 187.260,292.286 187.455,292.008 187.790 C 291.730 188.126,291.636 188.400,291.800 188.400 C 291.964 188.400,291.874 188.670,291.600 189.000 C 291.297 189.366,290.379 189.611,289.251 189.628 C 287.921 189.648,287.625 189.745,288.200 189.971 C 289.561 190.506,286.118 190.745,283.400 190.304 C 280.842 189.889,280.000 189.238,280.000 187.675 C 280.000 186.883,280.105 186.789,280.564 187.170 C 281.200 187.698,281.830 187.095,281.389 186.382 C 281.247 186.153,281.303 185.748,281.513 185.482 C 281.722 185.217,282.019 183.560,282.172 181.800 C 282.371 179.516,282.664 178.371,283.196 177.800 C 284.056 176.876,284.492 175.357,284.772 172.300 C 284.788 172.135,285.205 171.997,285.700 171.994 C 286.195 171.991,286.870 171.813,287.200 171.600 C 288.796 170.568,290.222 171.124,292.080 173.500 M174.192 231.956 C 172.648 232.310,170.376 233.185,169.143 233.900 C 167.911 234.615,166.713 235.200,166.482 235.200 C 166.251 235.200,165.546 235.716,164.915 236.346 C 164.285 236.977,163.368 237.620,162.878 237.775 C 160.309 238.591,155.113 241.362,154.554 242.214 C 154.204 242.748,153.081 243.585,152.059 244.075 C 151.037 244.564,149.840 245.270,149.400 245.642 C 148.960 246.015,147.324 246.965,145.765 247.754 C 144.205 248.543,142.405 249.680,141.765 250.281 C 140.723 251.259,139.239 251.947,135.400 253.232 C 132.413 254.232,123.748 255.519,122.190 255.194 C 115.750 253.854,113.207 252.192,113.202 249.324 C 113.201 248.622,113.028 247.941,112.817 247.811 C 112.607 247.681,112.536 247.312,112.659 246.991 C 113.014 246.066,111.647 245.787,110.994 246.650 C 110.066 247.874,110.207 252.607,111.200 253.600 C 111.640 254.040,111.917 254.400,111.817 254.400 C 111.455 254.400,113.578 258.255,114.282 258.878 C 114.677 259.227,115.794 259.643,116.764 259.802 C 117.785 259.970,118.927 260.490,119.473 261.037 C 120.628 262.192,121.721 262.800,122.642 262.800 C 123.024 262.800,123.661 263.093,124.058 263.452 C 125.855 265.079,149.598 265.435,152.667 263.881 C 153.777 263.319,156.212 262.707,159.400 262.188 C 161.139 261.905,164.213 260.626,164.580 260.033 C 164.877 259.552,167.594 258.608,170.526 257.968 C 172.417 257.555,172.961 257.249,173.436 256.330 C 173.923 255.388,174.276 255.200,175.553 255.200 C 177.005 255.200,178.025 254.756,184.160 251.455 C 185.237 250.875,186.358 250.400,186.649 250.400 C 186.940 250.400,187.948 249.943,188.889 249.384 C 192.278 247.371,194.994 246.297,196.600 246.334 C 201.191 246.439,203.654 246.893,204.524 247.793 C 205.006 248.292,205.927 248.824,206.571 248.976 C 208.357 249.395,212.731 251.531,213.615 252.415 C 214.047 252.847,214.777 253.200,215.238 253.200 C 215.699 253.200,216.554 253.534,217.138 253.942 C 217.722 254.350,218.730 254.812,219.378 254.969 C 220.026 255.126,221.158 255.782,221.892 256.427 C 222.714 257.149,223.675 257.600,224.390 257.600 C 225.030 257.600,225.670 257.790,225.813 258.021 C 225.956 258.253,226.280 258.373,226.533 258.289 C 226.785 258.205,228.019 258.645,229.274 259.268 C 230.528 259.891,232.065 260.400,232.689 260.400 C 233.312 260.400,234.211 260.672,234.686 261.005 C 235.682 261.703,240.309 263.187,241.200 263.095 C 241.909 263.022,244.638 263.431,248.823 264.238 C 252.552 264.957,265.259 265.092,266.953 264.430 C 267.587 264.182,268.418 264.079,268.800 264.200 C 269.182 264.321,270.000 264.228,270.619 263.993 C 271.579 263.628,272.631 263.440,275.500 263.122 C 275.775 263.092,275.917 262.984,275.816 262.883 C 275.596 262.662,277.796 261.010,279.200 260.341 C 281.293 259.344,284.399 255.522,284.400 253.943 C 284.400 253.017,284.619 252.402,285.000 252.255 C 285.643 252.009,285.788 249.623,285.244 248.236 C 284.919 247.407,284.148 248.402,282.636 251.600 C 281.519 253.960,280.438 254.454,275.460 254.874 C 269.229 255.400,267.241 255.357,266.464 254.681 C 265.735 254.045,263.614 253.577,260.742 253.418 C 258.951 253.318,257.402 252.541,255.347 250.709 C 254.877 250.290,253.347 249.408,251.947 248.747 C 250.546 248.087,248.915 247.019,248.323 246.373 C 247.710 245.707,246.834 245.200,246.294 245.200 C 245.771 245.200,244.635 244.665,243.771 244.011 C 242.907 243.357,241.980 242.817,241.712 242.811 C 241.444 242.805,240.827 242.264,240.343 241.608 C 239.858 240.953,238.846 240.213,238.093 239.965 C 236.278 239.366,234.178 238.072,232.646 236.610 C 231.961 235.956,231.310 235.400,231.200 235.376 C 231.090 235.351,230.730 235.229,230.400 235.105 C 230.070 234.980,228.900 234.650,227.800 234.371 C 226.700 234.092,224.814 233.315,223.609 232.643 C 220.366 230.834,215.400 230.713,207.936 232.260 C 207.351 232.381,206.791 232.790,206.693 233.168 C 206.594 233.546,205.902 234.146,205.156 234.501 C 204.410 234.857,203.180 235.789,202.422 236.574 C 201.663 237.358,200.729 238.000,200.345 238.000 C 199.961 238.000,199.524 238.199,199.373 238.443 C 198.854 239.283,196.192 238.476,194.633 237.005 C 193.813 236.232,192.890 235.600,192.581 235.600 C 192.271 235.600,191.733 235.165,191.385 234.633 C 189.543 231.821,180.749 230.453,174.192 231.956 " stroke="none" fill="#1c1a19" fill-rule="evenodd"></path><path id="path1" d="M140.307 157.869 L 113.614 158.006 113.408 158.903 C 113.295 159.396,113.157 161.136,113.101 162.770 L 113.000 165.739 110.800 166.239 C 98.389 169.061,94.911 185.320,105.138 192.712 C 106.585 193.758,106.845 193.344,105.500 192.136 C 103.674 190.495,102.046 188.351,101.600 187.000 C 101.348 186.236,100.975 185.508,100.771 185.382 C 100.019 184.917,100.349 178.165,101.240 175.784 C 102.550 172.283,107.839 167.200,110.171 167.200 C 110.517 167.200,110.800 167.040,110.800 166.845 C 110.800 166.650,111.610 166.369,112.600 166.221 C 114.252 165.973,115.438 164.400,113.973 164.400 C 113.728 164.400,113.654 164.059,113.800 163.601 C 113.939 163.161,114.065 162.216,114.080 161.501 C 114.140 158.534,110.266 158.784,154.315 158.898 L 193.800 159.000 193.682 165.800 C 193.617 169.540,193.412 172.960,193.226 173.400 C 193.041 173.840,192.669 175.910,192.402 178.000 C 192.134 180.090,191.754 181.860,191.557 181.933 C 191.361 182.007,191.200 182.414,191.200 182.839 C 191.200 183.263,191.038 183.923,190.840 184.305 C 190.642 184.687,189.981 186.260,189.372 187.800 C 188.762 189.340,187.934 191.078,187.532 191.662 C 187.129 192.246,186.800 192.850,186.800 193.004 C 186.800 193.158,186.347 193.850,185.794 194.542 C 185.241 195.234,184.581 196.070,184.327 196.400 C 184.074 196.730,183.496 197.415,183.043 197.922 C 182.317 198.734,182.305 198.811,182.942 198.567 C 185.027 197.767,190.359 189.893,190.841 186.903 C 191.099 185.306,191.445 184.000,191.609 184.000 C 191.774 184.000,192.036 183.145,192.192 182.100 C 192.348 181.055,192.662 179.972,192.891 179.694 C 193.120 179.416,193.441 177.820,193.605 176.148 C 193.769 174.476,194.119 172.973,194.384 172.810 C 194.649 172.646,194.965 171.362,195.086 169.956 C 195.207 168.550,195.486 167.174,195.705 166.897 C 196.087 166.414,195.876 161.839,195.380 159.861 C 194.854 157.766,190.592 157.612,140.307 157.869 M205.700 158.598 C 205.128 159.249,204.998 165.217,205.544 165.820 C 205.733 166.029,206.109 169.080,206.379 172.600 C 206.650 176.120,207.026 179.187,207.215 179.416 C 207.404 179.645,207.668 180.455,207.802 181.216 C 207.935 181.977,208.214 182.771,208.422 182.980 C 208.630 183.189,208.800 183.956,208.800 184.685 C 208.800 185.888,209.406 187.489,210.054 188.000 C 210.193 188.110,210.885 189.280,211.591 190.600 C 212.298 191.920,213.039 193.171,213.238 193.380 C 213.437 193.589,213.600 194.039,213.600 194.380 C 213.601 195.512,222.207 203.436,223.897 203.860 C 224.394 203.985,224.800 204.247,224.800 204.443 C 224.800 204.640,225.025 204.801,225.300 204.802 C 225.575 204.804,226.315 205.073,226.944 205.401 C 228.089 205.998,231.832 207.139,233.472 207.390 C 240.767 208.507,242.818 208.745,244.000 208.610 C 244.770 208.523,247.110 208.409,249.200 208.358 C 251.723 208.296,250.425 208.179,245.336 208.011 C 240.941 207.866,237.444 207.578,237.136 207.334 C 236.841 207.101,235.440 206.794,234.022 206.653 C 232.605 206.512,231.343 206.231,231.218 206.030 C 231.094 205.828,230.481 205.535,229.857 205.379 C 222.192 203.455,214.708 196.162,210.998 187.000 C 210.731 186.340,210.324 185.350,210.093 184.800 C 209.617 183.663,209.086 181.531,208.202 177.200 C 207.554 174.029,206.530 159.737,206.922 159.344 C 207.493 158.774,285.874 158.673,286.237 159.242 C 286.433 159.549,286.595 161.240,286.597 163.000 L 286.600 166.200 288.200 166.325 C 289.659 166.439,289.733 166.400,289.038 165.885 C 288.440 165.442,288.326 165.009,288.510 163.876 C 288.819 161.976,288.147 159.571,287.066 158.709 C 285.860 157.747,206.545 157.639,205.700 158.598 M290.000 166.718 C 290.000 166.948,290.528 167.252,291.172 167.394 C 291.817 167.536,292.559 167.910,292.821 168.226 C 293.083 168.542,293.501 168.805,293.749 168.810 C 295.946 168.860,300.080 175.895,300.324 180.000 C 300.560 183.979,297.958 191.200,296.287 191.200 C 296.108 191.200,295.565 191.642,295.081 192.181 C 294.053 193.326,290.614 195.200,289.540 195.200 C 289.133 195.200,288.800 195.380,288.800 195.600 C 288.800 196.113,289.091 196.098,290.800 195.492 C 292.486 194.895,296.800 192.068,296.800 191.561 C 296.800 191.362,297.058 191.200,297.373 191.200 C 297.688 191.200,298.060 190.840,298.200 190.400 C 298.340 189.960,298.626 189.600,298.837 189.600 C 299.047 189.600,299.395 189.195,299.609 188.700 C 299.823 188.205,300.157 187.530,300.352 187.200 C 302.382 183.754,302.997 179.145,301.652 177.441 C 301.461 177.198,301.095 176.349,300.839 175.553 C 300.583 174.757,299.844 173.587,299.198 172.953 C 298.551 172.319,298.017 171.612,298.011 171.381 C 298.005 171.151,297.454 170.521,296.787 169.981 C 296.121 169.442,295.323 168.775,295.016 168.500 C 294.709 168.225,294.277 168.000,294.057 168.000 C 293.837 168.000,293.385 167.728,293.052 167.395 C 292.301 166.643,290.000 166.133,290.000 166.718 M109.200 175.757 C 109.200 176.064,108.955 176.408,108.656 176.523 C 108.356 176.638,108.013 177.108,107.893 177.567 C 107.773 178.026,107.838 178.300,108.037 178.177 C 108.237 178.054,108.400 177.693,108.400 177.376 C 108.400 177.059,108.574 176.800,108.786 176.800 C 108.998 176.800,109.365 176.440,109.600 176.000 C 109.890 175.458,109.895 175.200,109.614 175.200 C 109.386 175.200,109.200 175.451,109.200 175.757 M115.200 178.576 C 115.200 178.893,115.380 179.264,115.600 179.400 C 115.820 179.536,116.000 179.277,116.000 178.824 C 116.000 178.371,115.820 178.000,115.600 178.000 C 115.380 178.000,115.200 178.259,115.200 178.576 M293.293 180.800 C 293.293 181.570,293.375 181.885,293.476 181.500 C 293.576 181.115,293.576 180.485,293.476 180.100 C 293.375 179.715,293.293 180.030,293.293 180.800 M107.643 182.892 C 107.556 183.488,108.900 186.400,109.263 186.400 C 109.469 186.400,110.044 186.838,110.539 187.372 C 111.535 188.447,113.600 189.169,113.600 188.443 C 113.600 188.200,113.398 188.000,113.152 188.000 C 112.394 188.000,109.230 185.830,109.215 185.300 C 109.207 185.025,109.055 184.800,108.877 184.800 C 108.700 184.800,108.359 184.305,108.120 183.700 C 107.881 183.095,107.666 182.731,107.643 182.892 M292.400 183.819 C 292.400 184.549,288.863 188.000,288.115 188.000 C 287.832 188.000,287.600 188.180,287.600 188.400 C 287.600 189.469,288.814 188.730,291.466 186.044 C 293.117 184.372,293.667 183.200,292.800 183.200 C 292.580 183.200,292.400 183.479,292.400 183.819 M117.800 188.400 C 117.664 188.620,116.708 188.830,115.676 188.867 C 113.842 188.933,113.835 188.938,115.362 189.095 C 117.185 189.282,118.800 188.952,118.800 188.392 C 118.800 187.881,118.118 187.886,117.800 188.400 M284.105 189.087 C 284.714 189.179,285.614 189.177,286.105 189.082 C 286.597 188.987,286.100 188.911,285.000 188.914 C 283.900 188.917,283.497 188.995,284.105 189.087 M107.800 194.400 C 108.460 194.837,109.360 195.175,109.800 195.151 C 110.567 195.109,110.568 195.099,109.828 194.910 C 109.404 194.802,108.806 194.463,108.500 194.157 C 108.193 193.851,107.641 193.601,107.271 193.603 C 106.818 193.604,106.990 193.864,107.800 194.400 M120.900 195.082 C 119.403 195.371,119.892 195.851,121.500 195.672 C 122.325 195.579,122.880 195.631,122.733 195.785 C 122.427 196.109,123.959 197.774,124.274 197.459 C 124.456 197.277,122.107 194.715,121.886 194.854 C 121.839 194.884,121.395 194.987,120.900 195.082 M277.675 195.800 C 277.197 196.350,276.939 196.794,277.103 196.787 C 277.490 196.769,279.200 195.342,279.200 195.036 C 279.200 194.505,278.492 194.860,277.675 195.800 M126.000 199.670 C 126.990 200.571,128.790 201.958,130.000 202.753 C 131.210 203.547,132.290 204.295,132.400 204.415 C 132.778 204.824,137.500 206.800,138.101 206.800 C 138.432 206.800,139.349 207.070,140.138 207.400 C 141.107 207.805,142.717 207.975,145.087 207.924 C 147.973 207.862,148.172 207.823,146.200 207.702 C 144.880 207.622,143.629 207.386,143.420 207.178 C 143.211 206.970,142.491 206.799,141.820 206.798 C 141.149 206.796,140.138 206.554,139.573 206.259 C 139.009 205.965,138.019 205.599,137.373 205.447 C 136.024 205.130,129.598 202.008,129.000 201.380 C 128.150 200.486,124.849 198.001,124.533 198.016 C 124.350 198.025,125.010 198.770,126.000 199.670 M275.345 198.600 C 275.218 198.930,274.864 199.200,274.557 199.200 C 274.251 199.200,274.000 199.481,274.000 199.824 C 274.000 200.167,273.840 200.349,273.645 200.228 C 273.450 200.107,273.068 200.277,272.796 200.604 C 272.524 200.932,272.073 201.200,271.794 201.200 C 271.514 201.200,271.182 201.470,271.055 201.800 C 270.929 202.130,270.549 202.400,270.213 202.400 C 269.876 202.400,269.600 202.580,269.600 202.800 C 269.600 203.020,269.341 203.200,269.024 203.200 C 268.707 203.200,268.337 203.378,268.203 203.595 C 267.870 204.134,269.139 203.650,270.462 202.735 C 271.046 202.331,271.638 202.000,271.779 202.000 C 272.103 202.000,272.882 201.378,274.909 199.500 C 275.799 198.675,276.313 198.000,276.051 198.000 C 275.789 198.000,275.471 198.270,275.345 198.600 M179.595 200.953 C 178.608 201.665,177.485 202.367,177.100 202.512 C 176.715 202.656,176.400 202.946,176.400 203.156 C 176.400 203.365,175.860 203.655,175.200 203.800 C 174.540 203.945,174.000 204.244,174.000 204.465 C 174.000 204.929,173.893 204.967,176.976 203.400 C 179.315 202.211,181.924 200.190,181.573 199.839 C 181.472 199.739,180.583 200.240,179.595 200.953 M264.404 205.157 C 263.856 205.309,263.586 205.536,263.804 205.661 C 264.022 205.786,264.740 205.652,265.400 205.362 C 266.665 204.807,266.088 204.688,264.404 205.157 M257.600 207.200 C 257.600 207.420,257.949 207.600,258.376 207.600 C 258.803 207.600,259.264 207.420,259.400 207.200 C 259.540 206.973,259.204 206.800,258.624 206.800 C 258.061 206.800,257.600 206.980,257.600 207.200 M254.300 207.882 C 254.795 207.978,255.605 207.978,256.100 207.882 C 256.595 207.787,256.190 207.709,255.200 207.709 C 254.210 207.709,253.805 207.787,254.300 207.882 M179.000 228.383 C 178.560 228.564,176.726 228.903,174.924 229.137 C 173.123 229.371,171.323 229.730,170.924 229.934 C 170.526 230.139,169.120 230.715,167.800 231.215 C 166.480 231.714,164.199 232.815,162.730 233.662 C 161.262 234.508,159.886 235.200,159.673 235.200 C 159.460 235.200,159.182 235.470,159.055 235.800 C 158.929 236.130,158.632 236.400,158.396 236.400 C 157.879 236.400,155.518 238.018,155.105 238.655 C 154.943 238.906,154.315 239.235,153.709 239.387 C 153.104 239.539,152.516 239.784,152.404 239.932 C 152.292 240.080,151.030 240.998,149.600 241.971 C 148.170 242.945,146.263 244.243,145.363 244.857 C 144.462 245.470,143.247 246.154,142.663 246.376 C 142.078 246.598,141.600 246.950,141.600 247.158 C 141.600 247.366,141.060 247.655,140.400 247.800 C 139.740 247.945,139.200 248.229,139.200 248.432 C 139.200 248.634,138.927 248.800,138.592 248.800 C 138.258 248.800,136.973 249.340,135.736 250.000 C 134.499 250.660,133.253 251.200,132.967 251.200 C 132.681 251.200,132.319 251.408,132.161 251.662 C 131.825 252.207,134.417 251.804,134.780 251.256 C 134.901 251.073,135.500 250.801,136.111 250.651 C 138.501 250.066,148.524 244.438,152.882 241.232 C 153.804 240.555,154.792 240.000,155.079 240.000 C 155.365 240.000,155.600 239.835,155.600 239.634 C 155.600 239.433,156.365 238.831,157.300 238.296 C 158.235 237.761,160.620 236.374,162.600 235.213 C 175.848 227.446,188.748 227.629,196.047 235.686 C 196.403 236.079,196.899 236.400,197.150 236.400 C 197.999 236.400,193.863 232.059,192.263 231.271 C 189.048 229.688,186.587 228.800,185.412 228.800 C 184.661 228.800,183.936 228.620,183.800 228.400 C 183.507 227.925,180.143 227.913,179.000 228.383 M208.833 229.230 C 207.642 229.440,206.472 229.768,206.233 229.957 C 205.995 230.147,205.377 230.432,204.861 230.591 C 203.835 230.905,202.400 232.178,202.400 232.773 C 202.400 232.978,202.085 233.246,201.699 233.369 C 201.020 233.584,199.800 235.134,200.085 235.419 C 200.200 235.534,201.949 234.289,204.200 232.491 C 208.337 229.186,219.230 228.393,225.000 230.978 C 225.660 231.274,227.045 231.895,228.078 232.358 C 229.111 232.821,230.236 233.200,230.578 233.200 C 230.920 233.200,231.200 233.362,231.200 233.561 C 231.200 233.759,231.695 234.122,232.300 234.366 C 233.638 234.906,234.548 235.464,242.248 240.460 C 245.574 242.619,248.634 244.514,249.048 244.672 C 249.462 244.830,250.149 245.284,250.575 245.680 C 251.002 246.076,251.587 246.400,251.875 246.400 C 252.164 246.400,252.401 246.535,252.403 246.700 C 252.405 246.865,252.810 247.187,253.303 247.417 C 253.796 247.646,255.370 248.438,256.800 249.178 C 258.230 249.918,259.867 250.759,260.439 251.048 C 261.010 251.337,262.675 251.800,264.139 252.078 C 265.602 252.355,266.800 252.721,266.800 252.891 C 266.800 253.061,267.910 253.200,269.267 253.200 C 272.342 253.200,272.144 252.930,268.712 252.444 C 267.171 252.226,264.812 251.473,263.047 250.635 C 261.384 249.846,259.755 249.200,259.427 249.200 C 259.099 249.200,258.509 248.864,258.116 248.454 C 257.722 248.044,256.431 247.391,255.246 247.004 C 252.537 246.119,249.756 244.262,249.027 242.853 C 248.720 242.258,248.048 241.580,247.534 241.347 C 247.020 241.113,245.592 240.444,244.360 239.861 C 243.128 239.277,241.976 238.800,241.800 238.800 C 241.625 238.800,240.911 238.215,240.214 237.500 C 239.105 236.362,234.305 233.600,233.437 233.600 C 233.263 233.600,231.627 232.880,229.800 232.000 C 227.973 231.120,226.219 230.400,225.901 230.400 C 225.583 230.400,224.710 230.094,223.961 229.719 C 222.350 228.914,212.435 228.593,208.833 229.230 M112.600 239.510 C 111.631 239.719,110.400 240.758,110.400 241.366 C 110.400 241.609,110.040 242.032,109.600 242.307 C 109.160 242.582,108.800 243.129,108.800 243.523 C 108.800 243.918,108.609 244.431,108.375 244.665 C 107.851 245.189,107.830 253.110,108.351 253.747 C 108.555 253.996,108.919 254.936,109.159 255.836 C 109.620 257.561,113.683 262.400,114.671 262.400 C 114.962 262.400,115.200 262.568,115.200 262.773 C 115.200 262.978,115.605 263.270,116.100 263.421 C 116.895 263.664,119.913 264.961,122.200 266.043 C 124.188 266.984,132.000 267.964,132.000 267.273 C 132.000 267.053,131.055 266.802,129.900 266.714 C 124.358 266.291,116.045 262.866,112.882 259.703 C 107.528 254.349,107.301 244.487,112.462 241.429 C 114.522 240.208,115.154 240.621,114.370 242.674 C 113.224 245.673,114.420 250.695,116.300 250.778 C 116.575 250.790,116.800 250.958,116.800 251.151 C 116.800 251.614,119.152 252.581,119.479 252.254 C 119.619 252.114,119.473 252.000,119.156 252.000 C 118.615 252.000,116.885 250.522,115.658 249.011 C 115.067 248.284,115.649 242.603,116.472 241.065 C 117.125 239.845,114.999 238.991,112.600 239.510 M280.600 239.755 C 279.801 240.345,279.801 240.350,280.657 242.729 C 281.843 246.028,280.887 250.800,279.040 250.800 C 278.742 250.800,278.274 251.070,278.000 251.400 C 277.726 251.730,277.164 252.000,276.751 252.000 C 276.338 252.000,276.000 252.155,276.000 252.345 C 276.000 252.534,275.571 252.607,275.047 252.507 C 274.523 252.407,273.955 252.550,273.784 252.825 C 273.335 253.552,276.713 253.032,278.392 252.116 C 280.036 251.219,281.600 249.840,281.600 249.287 C 281.600 249.056,281.811 248.796,282.070 248.710 C 282.854 248.449,282.725 243.555,281.900 242.297 C 280.011 239.414,283.899 240.534,286.016 243.483 C 290.676 249.971,283.981 264.000,276.225 264.000 C 275.881 264.000,275.600 264.172,275.600 264.382 C 275.600 264.592,274.946 264.886,274.147 265.036 C 272.943 265.262,272.813 265.375,273.386 265.696 C 273.848 265.955,274.224 265.936,274.519 265.641 C 274.761 265.399,275.205 265.200,275.505 265.200 C 276.230 265.200,280.564 263.154,280.733 262.732 C 280.807 262.549,281.039 262.400,281.250 262.400 C 281.768 262.400,284.000 260.727,284.000 260.339 C 284.000 260.168,284.495 259.505,285.100 258.867 C 287.290 256.558,287.667 255.880,288.222 253.262 C 289.545 247.019,288.828 243.844,285.522 241.297 C 282.988 239.345,281.701 238.942,280.600 239.755 M202.500 249.476 C 202.885 249.576,203.200 249.814,203.200 250.003 C 203.200 250.193,203.830 250.576,204.600 250.854 C 205.370 251.133,206.000 251.505,206.000 251.680 C 206.000 251.856,206.225 252.002,206.500 252.004 C 206.775 252.007,209.160 253.085,211.800 254.400 C 214.440 255.715,216.870 256.792,217.200 256.793 C 218.062 256.796,215.628 255.270,214.308 254.980 C 213.699 254.846,213.200 254.574,213.200 254.376 C 213.200 254.178,212.705 253.897,212.100 253.752 C 211.495 253.608,210.820 253.352,210.600 253.184 C 209.597 252.419,202.881 249.205,202.371 249.246 C 202.008 249.276,202.055 249.359,202.500 249.476 M191.684 250.215 C 191.017 250.972,191.622 250.970,192.624 250.213 C 193.209 249.770,193.252 249.626,192.800 249.628 C 192.470 249.629,191.968 249.894,191.684 250.215 M127.800 252.800 C 127.664 253.020,127.923 253.200,128.376 253.200 C 128.829 253.200,129.200 253.020,129.200 252.800 C 129.200 252.580,128.941 252.400,128.624 252.400 C 128.307 252.400,127.936 252.580,127.800 252.800 M185.600 253.176 C 185.600 253.409,185.395 253.600,185.144 253.600 C 184.460 253.600,181.200 255.295,181.200 255.650 C 181.200 256.016,183.480 255.105,185.231 254.040 C 185.964 253.594,186.290 253.179,186.033 253.021 C 185.795 252.873,185.600 252.943,185.600 253.176 M179.844 255.929 C 179.732 256.111,178.911 256.499,178.020 256.793 C 177.129 257.087,176.400 257.479,176.400 257.664 C 176.400 257.849,176.122 258.000,175.782 258.000 C 175.441 258.000,173.866 258.606,172.282 259.348 C 170.697 260.089,168.815 260.823,168.100 260.979 C 167.385 261.136,166.800 261.415,166.800 261.600 C 166.800 261.785,166.215 262.050,165.500 262.190 C 164.785 262.329,163.570 262.687,162.800 262.986 C 162.030 263.285,159.330 264.019,156.800 264.616 C 154.270 265.213,151.887 265.859,151.505 266.051 C 151.123 266.243,150.133 266.421,149.305 266.446 C 148.477 266.472,148.116 266.575,148.501 266.676 C 149.511 266.940,157.145 266.106,158.800 265.552 C 160.178 265.090,163.936 263.477,165.295 262.764 C 165.677 262.564,166.219 262.400,166.500 262.400 C 166.782 262.400,167.639 262.064,168.406 261.653 C 169.173 261.243,170.385 260.778,171.100 260.622 C 171.815 260.465,172.400 260.171,172.400 259.968 C 172.400 259.766,172.688 259.600,173.040 259.600 C 174.144 259.600,180.800 256.456,180.800 255.935 C 180.800 255.504,180.109 255.500,179.844 255.929 M218.000 257.168 C 218.000 257.371,218.528 257.652,219.172 257.794 C 219.817 257.936,220.559 258.310,220.821 258.626 C 221.083 258.942,221.508 259.200,221.764 259.200 C 222.021 259.200,222.916 259.550,223.754 259.977 C 224.592 260.404,225.801 260.868,226.439 261.009 C 227.078 261.149,227.600 261.409,227.600 261.587 C 227.600 261.765,228.222 262.028,228.983 262.170 C 229.744 262.313,230.847 262.680,231.435 262.985 C 232.023 263.290,233.381 263.660,234.452 263.807 C 235.524 263.955,236.400 264.238,236.400 264.438 C 236.400 264.637,236.670 264.800,237.000 264.800 C 238.459 264.800,237.356 264.102,234.500 263.218 C 232.795 262.691,231.194 262.105,230.942 261.916 C 230.690 261.727,230.330 261.607,230.142 261.649 C 229.778 261.732,229.192 261.520,226.522 260.341 C 225.599 259.933,224.699 259.594,224.522 259.587 C 224.345 259.581,223.300 259.132,222.200 258.591 C 221.100 258.050,219.975 257.606,219.700 257.604 C 219.425 257.602,219.200 257.420,219.200 257.200 C 219.200 256.980,218.930 256.800,218.600 256.800 C 218.270 256.800,218.000 256.966,218.000 257.168 M240.600 265.614 C 243.705 266.462,245.175 266.614,244.580 266.023 C 244.218 265.664,239.664 264.783,238.400 264.827 C 238.070 264.839,239.060 265.193,240.600 265.614 M271.200 266.000 C 271.200 266.220,270.630 266.400,269.933 266.400 C 269.237 266.400,268.778 266.512,268.915 266.648 C 269.307 267.040,272.842 266.391,272.584 265.974 C 272.275 265.474,271.200 265.494,271.200 266.000 M245.417 266.373 C 245.250 266.643,245.645 266.800,246.496 266.800 C 247.235 266.800,248.036 266.996,248.276 267.236 C 248.548 267.508,251.474 267.726,256.056 267.815 C 260.740 267.905,262.676 267.838,261.400 267.629 C 260.300 267.449,258.161 267.371,256.646 267.455 C 255.132 267.540,253.692 267.452,253.446 267.259 C 253.201 267.067,251.632 266.799,249.959 266.665 C 248.286 266.530,246.640 266.313,246.299 266.183 C 245.959 266.052,245.562 266.138,245.417 266.373 M143.400 267.200 C 143.536 267.420,144.346 267.600,145.200 267.600 C 146.054 267.600,146.864 267.420,147.000 267.200 C 147.153 266.953,146.463 266.800,145.200 266.800 C 143.937 266.800,143.247 266.953,143.400 267.200 M264.000 267.200 C 264.000 267.420,264.889 267.600,265.976 267.600 C 267.063 267.600,268.064 267.420,268.200 267.200 C 268.353 266.952,267.604 266.800,266.224 266.800 C 265.001 266.800,264.000 266.980,264.000 267.200 M135.516 267.897 C 136.899 267.975,139.059 267.974,140.316 267.895 C 141.572 267.816,140.440 267.752,137.800 267.753 C 135.160 267.753,134.132 267.818,135.516 267.897 " stroke="none" fill="#8e6139" fill-rule="evenodd"></path><path id="path2" d="M114.415 159.572 C 113.850 160.628,113.909 161.603,114.478 160.600 C 114.727 160.160,115.122 159.674,115.355 159.521 C 116.267 158.921,192.684 159.178,193.186 159.783 C 193.848 160.581,193.335 168.780,192.173 175.987 C 191.339 181.157,191.245 182.509,191.758 181.967 C 191.844 181.875,192.134 180.090,192.402 178.000 C 192.670 175.910,193.041 173.840,193.226 173.400 C 193.412 172.960,193.617 169.540,193.682 165.800 L 193.800 159.000 154.315 158.898 C 115.598 158.798,114.822 158.811,114.415 159.572 M207.203 159.133 C 206.972 159.210,206.833 160.492,206.878 162.133 L 206.957 165.000 207.097 162.300 L 207.237 159.600 219.318 159.552 C 252.250 159.423,280.118 159.414,282.900 159.532 L 286.000 159.663 286.000 163.024 C 286.000 166.365,286.006 166.386,287.100 166.626 C 288.271 166.882,290.898 167.712,292.166 168.226 C 292.680 168.434,292.843 168.392,292.661 168.099 C 292.512 167.858,291.853 167.543,291.195 167.399 C 290.538 167.255,290.000 166.981,290.000 166.791 C 290.000 166.601,289.235 166.391,288.300 166.323 L 286.600 166.200 286.597 163.000 C 286.595 161.240,286.433 159.549,286.238 159.243 C 285.915 158.737,208.725 158.630,207.203 159.133 M113.927 162.800 C 113.802 163.570,113.857 164.260,114.050 164.333 C 115.207 164.774,114.291 165.967,112.600 166.221 C 111.610 166.369,110.800 166.659,110.800 166.864 C 110.800 167.358,113.654 166.843,114.308 166.231 C 114.682 165.881,114.728 165.180,114.485 163.578 C 114.167 161.483,114.146 161.454,113.927 162.800 M207.282 169.000 C 207.264 170.320,207.499 172.750,207.803 174.400 L 208.356 177.400 208.119 174.600 C 207.988 173.060,207.754 170.630,207.597 169.200 L 207.314 166.600 207.282 169.000 M107.600 168.353 C 104.921 170.046,102.194 173.235,101.237 175.794 C 100.174 178.634,100.066 184.543,101.054 185.800 C 101.663 186.574,101.672 186.568,101.341 185.600 C 99.276 179.548,102.481 171.626,108.265 168.488 C 109.549 167.791,110.330 167.220,110.000 167.218 C 109.670 167.217,108.590 167.727,107.600 168.353 M295.547 170.900 C 302.657 178.047,300.762 189.726,291.866 193.593 C 290.730 194.087,289.487 194.651,289.105 194.846 C 288.723 195.041,287.958 195.200,287.405 195.200 C 286.852 195.200,286.400 195.380,286.400 195.600 C 286.400 195.820,286.940 196.000,287.600 196.000 C 288.260 196.000,288.800 195.820,288.800 195.600 C 288.800 195.380,289.133 195.200,289.540 195.200 C 290.614 195.200,294.053 193.326,295.081 192.181 C 295.565 191.642,296.108 191.200,296.287 191.200 C 297.958 191.200,300.560 183.979,300.324 180.000 C 300.085 175.977,295.960 168.869,293.829 168.810 C 293.625 168.805,294.399 169.745,295.547 170.900 M113.000 172.685 C 111.423 173.064,111.536 173.532,113.152 173.316 C 114.752 173.101,114.800 173.129,114.806 174.247 C 114.809 174.881,114.987 175.670,115.200 176.000 C 115.486 176.442,115.589 176.173,115.594 174.980 C 115.600 173.384,115.042 172.356,114.220 172.446 C 113.989 172.472,113.440 172.579,113.000 172.685 M285.596 172.900 C 285.593 173.175,285.475 174.103,285.333 174.962 C 285.146 176.094,285.203 176.446,285.538 176.239 C 285.792 176.081,286.000 175.333,286.000 174.576 C 286.000 173.620,286.183 173.200,286.600 173.200 C 286.930 173.200,287.200 173.020,287.200 172.800 C 287.200 172.580,286.840 172.400,286.400 172.400 C 285.960 172.400,285.598 172.625,285.596 172.900 M109.492 174.619 C 107.932 176.066,107.074 177.495,107.343 178.197 C 107.471 178.529,107.401 178.800,107.187 178.800 C 106.974 178.800,106.800 179.430,106.800 180.200 C 106.800 180.970,106.950 181.600,107.133 181.600 C 107.317 181.600,107.470 181.375,107.475 181.100 C 107.506 179.301,108.092 176.931,108.600 176.556 C 108.930 176.312,109.200 175.907,109.200 175.656 C 109.200 175.405,109.464 175.200,109.786 175.200 C 110.108 175.200,110.565 174.840,110.800 174.400 C 111.389 173.300,110.810 173.397,109.492 174.619 M290.736 175.231 C 291.651 176.128,292.400 177.128,292.400 177.454 C 292.400 177.780,292.580 177.936,292.800 177.800 C 293.555 177.333,290.599 173.600,289.474 173.600 C 289.253 173.600,289.821 174.334,290.736 175.231 M293.365 180.782 C 293.365 182.302,293.508 183.457,293.682 183.349 C 294.091 183.097,294.086 179.154,293.676 178.510 C 293.505 178.240,293.365 179.263,293.365 180.782 M208.836 179.754 C 208.777 180.981,209.715 184.180,210.814 186.499 C 211.599 188.156,211.707 187.551,210.946 185.761 C 210.581 184.903,209.965 183.030,209.577 181.600 C 209.190 180.170,208.856 179.339,208.836 179.754 M116.156 180.500 C 116.299 181.105,116.528 182.421,116.665 183.423 C 116.809 184.471,117.064 185.096,117.267 184.893 C 117.666 184.494,116.878 180.421,116.281 179.800 C 116.034 179.542,115.989 179.791,116.156 180.500 M283.409 182.900 C 283.026 184.275,282.447 186.190,282.122 187.155 C 281.443 189.172,281.748 189.609,283.800 189.558 L 285.000 189.528 283.600 189.128 C 281.818 188.619,281.884 188.796,282.806 186.988 C 283.243 186.132,283.600 185.030,283.600 184.539 C 283.600 184.049,283.772 183.541,283.983 183.411 C 284.193 183.281,284.264 182.910,284.140 182.587 C 284.016 182.264,284.114 182.000,284.357 182.000 C 284.601 182.000,284.800 181.640,284.800 181.200 C 284.800 179.593,284.088 180.463,283.409 182.900 M106.802 182.300 C 106.809 183.202,107.693 185.600,108.019 185.600 C 108.228 185.600,108.400 185.796,108.400 186.036 C 108.400 187.185,112.788 189.630,114.733 189.564 C 115.458 189.539,115.102 189.338,113.621 188.936 C 112.415 188.610,111.038 187.911,110.540 187.373 C 110.044 186.838,109.469 186.400,109.263 186.400 C 108.850 186.400,107.600 183.537,107.600 182.592 C 107.600 182.266,107.420 182.000,107.200 182.000 C 106.980 182.000,106.801 182.135,106.802 182.300 M190.247 184.423 C 188.185 191.376,183.141 198.129,177.087 202.042 C 174.173 203.925,173.883 204.195,175.200 203.797 C 175.750 203.631,176.344 203.249,176.520 202.948 C 176.696 202.646,177.010 202.400,177.219 202.400 C 177.428 202.400,178.499 201.753,179.599 200.962 C 180.700 200.172,181.600 199.645,181.600 199.791 C 181.600 199.937,181.915 199.742,182.300 199.357 C 182.685 198.972,183.000 198.540,183.000 198.398 C 183.000 198.147,184.036 196.720,185.900 194.403 C 186.395 193.788,186.800 193.158,186.800 193.004 C 186.800 192.850,187.129 192.246,187.532 191.662 C 187.934 191.078,188.765 189.340,189.378 187.800 C 189.992 186.260,190.673 184.613,190.893 184.139 C 191.113 183.666,191.206 183.036,191.100 182.739 C 190.994 182.443,190.610 183.200,190.247 184.423 M291.400 186.184 C 290.520 187.125,289.530 187.984,289.200 188.093 C 288.870 188.202,288.706 188.406,288.836 188.548 C 289.174 188.916,291.579 187.199,292.536 185.907 C 293.836 184.152,293.141 184.321,291.400 186.184 M101.813 187.639 C 101.959 188.101,102.376 188.792,102.739 189.175 C 103.103 189.558,104.136 190.683,105.035 191.676 C 105.934 192.668,107.149 193.601,107.735 193.748 C 108.321 193.895,108.800 194.192,108.800 194.408 C 108.800 194.623,109.101 194.800,109.469 194.800 C 109.836 194.800,110.454 195.087,110.841 195.437 C 111.489 196.024,111.529 196.016,111.347 195.337 C 111.236 194.919,110.220 194.194,109.004 193.663 C 106.733 192.672,103.554 189.845,102.569 187.940 C 101.880 186.608,101.428 186.428,101.813 187.639 M118.000 187.567 C 118.000 187.768,118.225 188.025,118.500 188.136 C 118.876 188.289,118.852 188.444,118.400 188.763 C 117.882 189.130,117.896 189.189,118.500 189.194 C 119.241 189.200,119.353 188.865,118.957 187.833 C 118.697 187.154,118.000 186.960,118.000 187.567 M211.621 188.346 C 211.495 191.616,219.565 200.544,225.252 203.426 C 228.368 205.005,228.043 204.532,224.621 202.506 C 219.238 199.320,215.350 195.164,212.549 189.600 C 212.050 188.610,211.633 188.045,211.621 188.346 M120.400 194.800 C 120.070 195.013,119.294 195.191,118.676 195.194 C 118.030 195.197,117.658 195.370,117.800 195.600 C 118.105 196.094,120.000 196.134,120.000 195.647 C 120.000 195.239,121.597 194.866,122.318 195.106 C 122.586 195.195,122.685 195.478,122.538 195.734 C 122.392 195.990,122.418 196.068,122.596 195.906 C 122.775 195.745,123.149 195.924,123.428 196.306 C 123.707 196.687,124.042 196.892,124.173 196.760 C 125.202 195.731,121.741 193.933,120.400 194.800 M276.744 196.100 C 276.017 197.035,275.201 197.939,274.931 198.109 C 274.660 198.279,274.157 198.700,273.812 199.045 C 272.748 200.109,269.324 202.349,266.803 203.630 C 265.481 204.302,264.400 204.933,264.400 205.033 C 264.400 205.294,266.561 204.730,266.800 204.406 C 266.910 204.258,267.585 203.881,268.300 203.570 C 269.015 203.259,269.600 202.869,269.600 202.702 C 269.600 202.536,269.876 202.400,270.213 202.400 C 270.549 202.400,270.929 202.130,271.055 201.800 C 271.182 201.470,271.514 201.200,271.794 201.200 C 272.073 201.200,272.524 200.932,272.796 200.604 C 273.068 200.277,273.450 200.107,273.645 200.228 C 273.840 200.349,274.000 200.167,274.000 199.824 C 274.000 199.481,274.270 199.200,274.600 199.200 C 274.930 199.200,275.200 199.009,275.200 198.776 C 275.200 198.543,275.425 198.482,275.700 198.641 C 275.975 198.799,276.074 198.788,275.919 198.617 C 275.765 198.445,275.855 198.072,276.119 197.787 C 276.384 197.502,277.029 196.709,277.553 196.024 C 278.228 195.143,278.724 194.849,279.253 195.017 C 279.664 195.147,280.000 195.062,280.000 194.827 C 280.000 193.700,278.004 194.481,276.744 196.100 M112.000 195.600 C 112.000 195.820,112.349 196.000,112.776 196.000 C 113.203 196.000,113.664 195.820,113.800 195.600 C 113.940 195.373,113.604 195.200,113.024 195.200 C 112.461 195.200,112.000 195.380,112.000 195.600 M281.200 195.600 C 281.200 195.820,281.560 196.000,282.000 196.000 C 282.440 196.000,282.800 195.820,282.800 195.600 C 282.800 195.380,282.440 195.200,282.000 195.200 C 281.560 195.200,281.200 195.380,281.200 195.600 M124.200 197.600 C 124.064 197.820,124.158 198.000,124.409 198.000 C 124.821 198.000,127.998 200.335,129.006 201.380 C 129.230 201.611,130.490 202.336,131.806 202.991 C 134.838 204.499,134.800 204.483,134.800 204.260 C 134.800 204.157,133.487 203.352,131.882 202.471 C 130.276 201.590,128.045 200.043,126.923 199.034 C 124.737 197.069,124.579 196.986,124.200 197.600 M135.333 204.692 C 135.475 204.921,136.216 205.226,136.979 205.370 C 137.742 205.513,138.869 205.892,139.483 206.212 C 140.528 206.757,142.789 207.056,142.320 206.587 C 142.203 206.470,140.868 206.006,139.354 205.555 C 137.839 205.104,136.257 204.632,135.837 204.505 C 135.364 204.361,135.173 204.432,135.333 204.692 M228.172 204.755 C 228.293 204.950,229.010 205.225,229.766 205.367 C 230.523 205.509,231.200 205.784,231.271 205.977 C 231.342 206.170,232.300 206.436,233.400 206.568 C 235.272 206.791,235.182 206.730,232.000 205.609 C 228.339 204.320,227.833 204.207,228.172 204.755 M168.900 205.612 C 167.450 206.195,167.868 206.722,169.400 206.242 C 170.170 206.001,170.800 205.668,170.800 205.502 C 170.800 205.112,170.035 205.156,168.900 205.612 M261.200 205.800 C 260.784 206.301,260.842 206.400,261.551 206.400 C 262.018 206.400,262.400 206.237,262.400 206.037 C 262.400 205.838,262.788 205.776,263.263 205.900 C 263.854 206.055,264.035 205.980,263.839 205.663 C 263.432 205.004,261.790 205.090,261.200 205.800 M143.400 207.200 C 143.536 207.420,144.087 207.600,144.624 207.600 C 145.161 207.600,145.600 207.420,145.600 207.200 C 145.600 206.980,145.049 206.800,144.376 206.800 C 143.663 206.800,143.256 206.967,143.400 207.200 M162.200 207.200 C 162.056 207.433,162.463 207.600,163.176 207.600 C 163.849 207.600,164.400 207.420,164.400 207.200 C 164.400 206.980,163.961 206.800,163.424 206.800 C 162.887 206.800,162.336 206.980,162.200 207.200 M237.077 207.233 C 238.084 208.250,257.600 208.166,257.600 207.145 C 257.600 206.913,256.404 206.889,254.500 207.083 C 250.975 207.443,241.594 207.401,238.600 207.011 C 237.041 206.808,236.705 206.857,237.077 207.233 M148.125 207.686 C 148.719 208.064,159.546 208.044,160.508 207.664 C 160.898 207.510,158.164 207.384,154.433 207.384 C 150.703 207.384,147.864 207.520,148.125 207.686 M211.400 229.586 C 210.960 229.769,209.817 230.129,208.861 230.387 C 207.905 230.645,207.185 230.918,207.262 230.995 C 207.338 231.072,208.391 230.856,209.601 230.516 C 210.838 230.168,213.550 229.878,215.800 229.853 C 218.073 229.828,219.282 229.697,218.600 229.551 C 216.855 229.178,212.331 229.200,211.400 229.586 M183.400 229.879 C 186.241 230.256,191.200 231.921,191.200 232.498 C 191.200 232.664,191.427 232.800,191.705 232.800 C 191.983 232.800,193.445 233.970,194.954 235.400 C 198.205 238.480,198.300 238.495,200.494 236.273 C 201.432 235.323,202.639 234.247,203.176 233.882 C 203.713 233.517,204.056 233.122,203.938 233.005 C 203.820 232.887,202.937 233.414,201.975 234.175 C 201.013 234.936,200.142 235.475,200.040 235.373 C 199.937 235.270,199.625 235.730,199.346 236.393 C 198.838 237.600,197.289 238.187,197.745 237.000 C 197.890 236.621,197.739 236.400,197.334 236.400 C 196.982 236.400,196.403 236.079,196.047 235.686 C 193.002 232.324,187.062 229.496,183.400 229.665 L 182.200 229.720 183.400 229.879 M172.600 230.590 L 171.400 231.144 172.800 230.912 C 174.934 230.557,176.096 230.053,174.800 230.043 C 174.250 230.039,173.260 230.285,172.600 230.590 M222.200 230.579 C 224.597 231.281,225.099 231.335,224.580 230.833 C 224.371 230.631,223.300 230.359,222.200 230.229 L 220.200 229.993 222.200 230.579 M168.380 232.188 C 167.160 232.714,164.550 234.084,162.580 235.234 C 160.611 236.383,158.235 237.761,157.300 238.296 C 156.365 238.831,155.600 239.426,155.600 239.618 C 155.600 239.810,156.511 239.389,157.624 238.683 C 162.305 235.716,169.321 232.000,170.243 232.000 C 170.523 232.000,170.864 231.820,171.000 231.600 C 171.365 231.010,170.848 231.126,168.380 232.188 M205.300 231.744 C 204.805 231.989,204.400 232.332,204.400 232.505 C 204.400 232.679,204.940 232.541,205.600 232.200 C 206.260 231.859,206.800 231.494,206.800 231.390 C 206.800 231.121,206.339 231.230,205.300 231.744 M225.254 231.387 C 225.590 231.723,228.400 232.816,228.400 232.611 C 228.400 232.501,227.748 232.138,226.951 231.805 C 225.475 231.189,224.918 231.051,225.254 231.387 M228.801 232.898 C 229.690 233.625,234.086 235.585,233.650 235.060 C 233.348 234.697,232.867 234.400,232.580 234.400 C 232.292 234.400,231.818 234.160,231.525 233.867 C 231.232 233.575,230.454 233.200,229.797 233.035 C 229.139 232.870,228.691 232.808,228.801 232.898 M234.400 235.702 C 234.400 235.800,235.937 236.853,237.816 238.040 C 239.695 239.228,243.162 241.460,245.520 243.000 C 258.549 251.509,269.088 255.510,273.600 253.661 C 274.386 253.339,273.764 253.245,270.700 253.225 C 268.555 253.211,266.800 253.061,266.800 252.891 C 266.800 252.721,265.602 252.355,264.139 252.078 C 262.675 251.800,261.010 251.340,260.439 251.056 C 259.867 250.772,258.860 250.273,258.200 249.947 C 256.158 248.940,252.610 247.017,252.400 246.802 C 252.290 246.690,251.705 246.344,251.100 246.032 C 250.495 245.720,250.000 245.315,250.000 245.132 C 250.000 244.950,249.759 244.800,249.465 244.800 C 249.170 244.800,246.491 243.200,243.510 241.244 C 237.642 237.392,234.400 235.420,234.400 235.702 M152.758 241.315 C 151.791 242.038,149.290 243.644,147.200 244.885 C 143.203 247.257,140.832 248.914,142.800 247.959 C 143.350 247.692,144.520 247.011,145.400 246.445 C 147.753 244.932,148.531 244.463,149.200 244.155 C 149.530 244.003,150.655 243.275,151.701 242.539 C 152.746 241.803,153.704 241.200,153.829 241.200 C 153.955 241.200,154.327 240.930,154.657 240.600 C 155.731 239.526,154.559 239.967,152.758 241.315 M112.400 241.443 C 107.298 244.616,107.555 254.376,112.882 259.703 C 114.981 261.802,120.999 264.837,125.000 265.815 C 126.540 266.191,128.160 266.594,128.600 266.709 C 129.040 266.824,129.266 266.772,129.102 266.594 C 128.938 266.416,127.154 265.843,125.138 265.321 C 119.327 263.816,111.200 258.984,111.200 257.034 C 111.200 256.918,110.728 255.824,110.150 254.605 C 107.999 250.061,109.405 243.554,112.917 241.802 C 114.380 241.072,114.627 241.229,113.965 242.466 C 113.146 243.995,113.394 248.187,114.386 249.580 C 115.753 251.501,120.000 253.953,120.000 252.822 C 120.000 252.645,119.482 252.396,118.848 252.270 C 118.215 252.143,117.418 251.760,117.077 251.420 C 116.736 251.079,116.309 250.790,116.129 250.778 C 114.398 250.661,113.282 245.521,114.370 242.674 C 115.149 240.634,114.427 240.183,112.400 241.443 M281.200 241.014 C 281.200 241.132,281.515 241.709,281.900 242.297 C 282.725 243.555,282.854 248.449,282.070 248.710 C 281.811 248.796,281.600 249.056,281.600 249.287 C 281.600 250.395,277.301 253.078,276.201 252.656 C 275.848 252.520,275.660 252.573,275.784 252.774 C 275.908 252.975,275.693 253.222,275.305 253.323 C 274.771 253.463,274.819 253.518,275.504 253.554 C 276.411 253.600,279.264 252.400,280.415 251.487 C 282.647 249.718,283.494 246.406,282.657 242.727 C 282.193 240.690,283.477 241.027,285.476 243.467 C 286.805 245.088,286.948 245.518,287.230 248.716 L 287.537 252.200 287.444 248.770 C 287.342 245.016,285.994 242.272,283.749 241.250 C 282.724 240.782,281.200 240.642,281.200 241.014 M199.624 248.088 C 199.939 248.424,200.404 248.620,200.657 248.523 C 200.911 248.425,201.238 248.538,201.383 248.773 C 201.528 249.008,201.952 249.202,202.324 249.204 C 203.287 249.209,210.616 253.058,210.520 253.507 C 210.476 253.713,210.852 253.803,211.357 253.706 C 211.861 253.610,212.532 253.789,212.848 254.105 C 213.164 254.421,214.063 254.891,214.846 255.149 C 215.629 255.408,216.614 255.935,217.035 256.321 C 217.456 256.707,218.115 256.960,218.500 256.882 C 218.885 256.805,219.200 256.935,219.200 257.171 C 219.200 257.407,219.408 257.600,219.661 257.600 C 219.915 257.600,221.040 258.029,222.161 258.552 C 225.009 259.883,226.497 260.278,225.424 259.421 C 224.996 259.079,224.484 258.800,224.284 258.800 C 223.720 258.800,220.322 257.215,206.600 250.554 C 201.025 247.848,198.599 246.990,199.624 248.088 M138.600 249.629 C 137.280 250.272,135.900 250.798,135.533 250.799 C 135.167 250.799,134.797 251.010,134.711 251.267 C 134.626 251.523,133.893 251.748,133.084 251.767 C 132.274 251.785,131.525 252.025,131.418 252.300 C 131.131 253.044,132.422 252.910,134.306 252.000 C 135.216 251.560,136.155 251.200,136.392 251.200 C 136.926 251.200,141.600 248.861,141.600 248.594 C 141.600 248.248,141.043 248.441,138.600 249.629 M193.242 248.834 C 192.715 249.045,192.379 249.312,192.495 249.428 C 192.812 249.745,194.800 249.166,194.800 248.757 C 194.800 248.321,194.485 248.337,193.242 248.834 M190.500 250.088 C 189.175 250.727,189.405 251.227,190.800 250.740 C 191.460 250.510,192.000 250.159,192.000 249.961 C 192.000 249.508,191.641 249.538,190.500 250.088 M187.100 251.903 C 185.991 252.591,185.662 253.200,186.400 253.200 C 186.620 253.200,186.800 253.040,186.800 252.843 C 186.800 252.647,187.250 252.374,187.800 252.236 C 188.350 252.098,188.800 251.808,188.800 251.592 C 188.800 251.039,188.367 251.118,187.100 251.903 M129.200 252.800 C 129.200 253.020,129.560 253.200,130.000 253.200 C 130.440 253.200,130.800 253.020,130.800 252.800 C 130.800 252.580,130.440 252.400,130.000 252.400 C 129.560 252.400,129.200 252.580,129.200 252.800 M183.295 253.741 C 180.714 254.855,180.315 255.219,180.811 256.003 C 181.140 256.524,181.189 256.520,181.194 255.971 C 181.200 255.377,184.160 253.600,185.144 253.600 C 185.395 253.600,185.600 253.420,185.600 253.200 C 185.600 252.706,185.800 252.660,183.295 253.741 M123.900 253.489 C 124.615 253.578,125.785 253.578,126.500 253.489 C 127.215 253.401,126.630 253.328,125.200 253.328 C 123.770 253.328,123.185 253.401,123.900 253.489 M285.681 255.690 C 284.298 258.481,284.268 259.071,285.605 257.192 C 286.336 256.166,287.384 253.200,287.016 253.200 C 286.961 253.200,286.360 254.321,285.681 255.690 M176.000 257.091 C 166.762 261.469,154.825 265.341,148.900 265.882 C 147.745 265.988,146.800 266.234,146.800 266.429 C 146.800 266.817,150.113 266.526,151.400 266.025 C 151.840 265.854,154.270 265.223,156.800 264.622 C 159.330 264.021,162.030 263.285,162.800 262.986 C 163.570 262.687,164.785 262.329,165.500 262.190 C 166.215 262.050,166.800 261.785,166.800 261.600 C 166.800 261.415,167.385 261.136,168.100 260.979 C 168.815 260.823,170.697 260.089,172.282 259.348 C 173.866 258.606,175.441 258.000,175.782 258.000 C 176.122 258.000,176.400 257.849,176.400 257.664 C 176.400 257.479,177.129 257.087,178.020 256.793 C 178.911 256.499,179.732 256.111,179.844 255.929 C 180.233 255.300,178.983 255.678,176.000 257.091 M282.533 259.991 C 281.379 261.073,280.274 261.697,274.800 264.357 C 273.371 265.052,273.247 265.181,274.200 264.986 C 274.860 264.851,275.460 264.574,275.533 264.370 C 275.607 264.167,275.933 264.000,276.258 264.000 C 277.433 264.000,281.435 261.823,283.000 260.332 C 283.880 259.494,284.420 258.808,284.200 258.806 C 283.980 258.805,283.230 259.338,282.533 259.991 M226.600 260.400 C 226.736 260.620,227.062 260.801,227.324 260.802 C 227.586 260.804,228.292 261.062,228.893 261.375 C 229.495 261.689,230.076 261.801,230.185 261.624 C 230.294 261.447,229.616 261.009,228.679 260.651 C 226.705 259.898,226.256 259.843,226.600 260.400 M231.027 261.955 C 231.452 262.344,233.929 262.996,233.554 262.620 C 233.419 262.486,232.711 262.204,231.981 261.995 C 231.251 261.785,230.822 261.768,231.027 261.955 M234.000 262.994 C 234.000 263.101,234.810 263.392,235.800 263.642 C 236.790 263.891,237.600 264.226,237.600 264.385 C 237.600 264.545,239.085 264.884,240.900 265.139 C 242.865 265.415,244.375 265.839,244.634 266.187 C 244.889 266.532,245.218 266.626,245.434 266.416 C 245.647 266.209,246.553 266.208,247.600 266.413 C 248.590 266.607,250.030 266.755,250.800 266.742 C 251.570 266.730,250.400 266.398,248.200 266.006 C 242.350 264.963,238.402 264.066,236.692 263.393 C 235.188 262.802,234.000 262.626,234.000 262.994 M269.332 265.755 C 266.475 266.370,266.104 266.957,268.800 266.597 C 270.010 266.435,271.107 266.135,271.238 265.928 C 271.369 265.722,271.999 265.669,272.638 265.809 C 273.523 266.004,273.657 265.963,273.200 265.638 C 272.503 265.143,272.123 265.155,269.332 265.755 M131.193 266.669 C 131.519 266.812,131.981 267.125,132.220 267.364 C 132.739 267.885,143.734 267.741,143.411 267.218 C 143.296 267.032,140.997 266.889,138.301 266.900 C 135.605 266.911,132.770 266.805,132.000 266.665 C 131.230 266.524,130.867 266.526,131.193 266.669 M253.366 267.100 C 253.531 267.265,255.676 267.426,258.133 267.457 C 260.590 267.488,262.848 267.578,263.150 267.657 C 263.453 267.736,263.782 267.575,263.883 267.300 C 264.024 266.915,262.798 266.800,258.567 266.800 C 255.542 266.800,253.202 266.935,253.366 267.100 " stroke="none" fill="#5c371b" fill-rule="evenodd"></path><path id="path3" d="M115.029 159.829 C 114.342 160.516,114.164 163.808,114.763 164.754 C 114.979 165.094,115.034 164.596,114.906 163.462 C 114.539 160.209,115.238 159.654,119.900 159.498 L 123.800 159.367 119.729 159.284 C 116.480 159.217,115.530 159.327,115.029 159.829 M132.274 159.499 C 136.494 159.564,143.514 159.564,147.874 159.500 C 152.233 159.435,148.780 159.382,140.200 159.382 C 131.620 159.382,128.053 159.435,132.274 159.499 M176.293 159.500 L 192.787 159.609 192.987 160.504 C 193.097 160.997,193.249 162.120,193.326 163.000 C 193.438 164.288,193.479 164.166,193.533 162.380 C 193.635 158.994,194.722 159.188,176.220 159.295 L 159.800 159.391 176.293 159.500 M233.300 159.496 C 234.565 159.575,236.635 159.575,237.900 159.496 C 239.165 159.416,238.130 159.351,235.600 159.351 C 233.070 159.351,232.035 159.416,233.300 159.496 M267.318 159.498 C 269.033 159.573,271.733 159.572,273.318 159.497 C 274.903 159.421,273.500 159.359,270.200 159.360 C 266.900 159.361,265.603 159.422,267.318 159.498 M207.247 162.900 C 207.272 164.715,207.424 167.370,207.583 168.800 C 207.798 170.739,207.862 169.902,207.836 165.504 C 207.816 162.261,207.665 159.606,207.500 159.604 C 207.335 159.602,207.221 161.085,207.247 162.900 M192.920 168.800 C 192.920 170.010,192.995 170.505,193.087 169.900 C 193.178 169.295,193.178 168.305,193.087 167.700 C 192.995 167.095,192.920 167.590,192.920 168.800 M292.200 168.512 C 292.640 168.780,293.883 169.857,294.962 170.905 C 296.041 171.952,296.987 172.746,297.064 172.669 C 297.339 172.394,293.218 168.625,292.317 168.327 C 291.455 168.042,291.448 168.053,292.200 168.512 M105.000 170.800 C 104.368 171.460,103.983 172.000,104.144 172.000 C 104.429 172.000,106.400 170.027,106.400 169.742 C 106.400 169.426,106.096 169.656,105.000 170.800 M192.300 172.210 C 192.194 172.765,192.263 173.315,192.454 173.433 C 192.644 173.551,192.800 173.097,192.800 172.424 C 192.800 170.939,192.563 170.837,192.300 172.210 M208.101 173.000 C 208.105 173.880,208.187 174.193,208.283 173.695 C 208.379 173.198,208.375 172.478,208.275 172.095 C 208.175 171.713,208.096 172.120,208.101 173.000 M109.126 174.399 C 108.067 175.498,107.200 176.602,107.200 176.853 C 107.200 177.103,107.601 176.789,108.091 176.154 C 109.425 174.425,110.806 173.483,113.200 172.667 C 113.530 172.555,113.182 172.449,112.426 172.432 C 111.283 172.405,110.731 172.734,109.126 174.399 M285.040 174.100 C 284.896 175.035,284.672 176.430,284.541 177.200 C 284.383 178.130,284.437 178.466,284.701 178.200 C 285.082 177.817,285.793 172.400,285.462 172.400 C 285.374 172.400,285.184 173.165,285.040 174.100 M287.200 172.786 C 287.200 173.033,287.425 173.198,287.700 173.153 C 289.176 172.912,292.353 175.515,293.476 177.885 L 294.005 179.000 293.771 177.806 C 293.324 175.522,287.200 170.843,287.200 172.786 M191.882 175.150 C 191.727 175.893,191.620 176.972,191.644 177.550 C 191.673 178.242,191.810 177.987,192.047 176.800 C 192.245 175.810,192.352 174.730,192.285 174.400 C 192.219 174.070,192.038 174.408,191.882 175.150 M208.480 176.600 C 208.480 177.040,208.624 177.850,208.800 178.400 C 209.054 179.192,209.120 179.233,209.120 178.600 C 209.120 178.160,208.976 177.350,208.800 176.800 C 208.546 176.008,208.480 175.967,208.480 176.600 M299.128 177.200 C 300.491 184.218,297.433 190.786,291.645 193.266 C 290.678 193.681,289.984 194.118,290.104 194.237 C 290.525 194.658,294.222 192.448,295.902 190.771 C 299.373 187.306,301.073 180.840,299.472 177.200 L 298.856 175.800 299.128 177.200 M115.200 177.000 C 115.200 177.330,115.380 177.600,115.600 177.600 C 115.820 177.600,116.000 178.039,116.000 178.576 C 116.000 179.113,116.180 179.664,116.400 179.800 C 116.913 180.117,116.903 179.838,116.337 177.946 C 115.877 176.412,115.200 175.848,115.200 177.000 M106.661 178.466 C 106.318 179.747,106.387 182.828,106.780 183.800 C 106.965 184.257,107.014 183.426,106.894 181.859 C 106.758 180.092,106.839 179.023,107.121 178.849 C 107.369 178.696,107.418 178.353,107.234 178.056 C 106.999 177.675,106.843 177.787,106.661 178.466 M100.914 179.800 C 100.917 180.900,100.995 181.303,101.087 180.695 C 101.179 180.086,101.177 179.186,101.082 178.695 C 100.987 178.203,100.911 178.700,100.914 179.800 M283.595 180.418 C 283.352 181.321,283.227 182.271,283.317 182.530 C 283.406 182.788,283.611 182.415,283.772 181.700 C 283.932 180.985,284.229 180.400,284.432 180.400 C 284.917 180.400,284.907 179.313,284.419 179.012 C 284.209 178.882,283.838 179.515,283.595 180.418 M209.413 180.600 C 209.745 182.455,210.940 186.184,211.069 185.770 C 211.132 185.566,210.737 184.050,210.191 182.400 C 209.645 180.750,209.294 179.940,209.413 180.600 M294.072 181.276 C 294.032 182.308,293.820 183.264,293.600 183.400 C 293.380 183.536,293.200 183.990,293.200 184.410 C 293.200 185.617,290.929 187.884,288.972 188.632 C 287.988 189.008,287.257 189.390,287.348 189.481 C 288.114 190.247,293.600 186.138,293.600 184.799 C 293.600 184.447,293.791 183.969,294.024 183.736 C 294.258 183.502,294.380 182.431,294.296 181.356 L 294.144 179.400 294.072 181.276 M100.893 183.200 C 100.893 183.970,100.975 184.285,101.076 183.900 C 101.176 183.515,101.176 182.885,101.076 182.500 C 100.975 182.115,100.893 182.430,100.893 183.200 M117.390 183.200 C 117.506 183.750,117.713 184.875,117.851 185.700 C 117.989 186.525,118.244 187.200,118.418 187.200 C 118.591 187.200,118.914 187.695,119.135 188.300 L 119.537 189.400 119.568 188.300 C 119.586 187.695,119.427 187.200,119.215 187.200 C 119.004 187.200,118.637 186.435,118.401 185.500 C 117.888 183.471,117.041 181.545,117.390 183.200 M282.418 184.898 C 282.137 185.834,281.731 187.084,281.515 187.676 C 281.097 188.823,281.345 189.604,282.124 189.594 C 282.454 189.590,282.440 189.486,282.075 189.255 C 281.652 188.987,281.719 188.400,282.418 186.237 C 282.895 184.760,283.205 183.472,283.107 183.374 C 283.009 183.276,282.699 183.962,282.418 184.898 M107.200 185.175 C 107.200 186.407,111.401 189.656,112.884 189.570 C 113.168 189.554,112.752 189.239,111.961 188.870 C 110.402 188.145,108.400 186.651,108.400 186.214 C 108.400 186.065,108.130 185.673,107.800 185.343 C 107.470 185.013,107.200 184.937,107.200 185.175 M188.900 186.805 C 188.405 187.834,188.000 188.811,188.000 188.976 C 188.000 189.141,187.626 189.802,187.169 190.444 C 186.711 191.086,186.407 191.821,186.492 192.076 C 186.577 192.332,187.414 190.972,188.351 189.053 C 189.288 187.135,189.998 185.423,189.928 185.249 C 189.857 185.076,189.395 185.775,188.900 186.805 M101.600 186.114 C 101.600 187.750,106.035 192.311,108.918 193.640 C 110.063 194.168,111.060 194.735,111.133 194.900 C 111.207 195.065,111.892 195.200,112.657 195.200 C 113.482 195.200,113.947 195.363,113.800 195.600 C 113.646 195.849,114.404 196.000,115.800 196.000 C 117.196 196.000,117.954 195.849,117.800 195.600 C 117.658 195.370,118.030 195.197,118.676 195.194 C 119.294 195.191,120.047 195.031,120.350 194.840 C 120.669 194.637,119.012 194.581,116.389 194.705 C 113.049 194.864,111.953 194.800,112.163 194.460 C 112.349 194.159,112.089 194.000,111.410 194.000 C 108.915 194.000,105.112 191.081,102.500 187.162 C 102.005 186.419,101.600 185.947,101.600 186.114 M211.628 187.400 C 211.628 187.620,211.886 188.250,212.200 188.800 C 212.514 189.350,212.772 189.620,212.772 189.400 C 212.772 189.180,212.514 188.550,212.200 188.000 C 211.886 187.450,211.628 187.180,211.628 187.400 M114.600 189.600 C 113.462 189.890,113.483 189.905,115.000 189.905 C 115.880 189.905,117.140 189.768,117.800 189.600 C 118.938 189.310,118.917 189.295,117.400 189.295 C 116.520 189.295,115.260 189.432,114.600 189.600 M284.000 189.600 C 283.025 189.912,283.030 189.921,284.200 189.932 C 284.860 189.938,285.760 189.789,286.200 189.600 C 287.294 189.130,285.467 189.130,284.000 189.600 M184.917 194.289 C 183.423 196.281,179.175 200.352,178.300 200.631 C 177.915 200.754,177.600 201.001,177.600 201.180 C 177.600 201.360,177.240 201.601,176.800 201.716 C 176.360 201.831,176.000 202.131,176.000 202.382 C 176.000 202.914,179.081 200.867,181.306 198.857 C 182.755 197.548,186.602 192.800,186.214 192.800 C 186.115 192.800,185.531 193.470,184.917 194.289 M215.227 194.075 C 216.862 197.006,226.158 204.400,228.208 204.400 C 228.394 204.400,226.959 203.455,225.019 202.300 C 221.673 200.308,217.227 196.424,215.290 193.800 L 214.404 192.600 215.227 194.075 M277.600 194.513 C 276.536 195.377,273.853 198.899,274.639 198.399 C 275.058 198.133,275.981 197.138,276.691 196.187 C 277.401 195.236,278.391 194.380,278.891 194.283 C 279.659 194.136,279.676 194.102,279.000 194.067 C 278.560 194.044,277.930 194.245,277.600 194.513 M288.327 194.310 C 289.109 194.860,284.414 195.263,282.758 194.788 C 281.022 194.290,280.000 194.294,280.000 194.800 C 280.000 195.020,280.630 195.200,281.400 195.200 C 282.170 195.200,282.800 195.380,282.800 195.600 C 282.800 195.820,283.610 196.000,284.600 196.000 C 285.590 196.000,286.400 195.831,286.400 195.625 C 286.400 195.419,286.985 195.194,287.700 195.125 C 288.979 195.002,289.368 194.355,288.330 194.080 C 287.893 193.964,287.892 194.004,288.327 194.310 M124.233 196.439 C 124.536 197.104,128.197 200.390,127.962 199.785 C 127.873 199.556,126.940 198.584,125.889 197.624 C 124.838 196.664,124.093 196.131,124.233 196.439 M271.800 200.055 C 270.920 200.709,269.615 201.612,268.900 202.062 C 267.671 202.834,267.029 203.564,268.100 202.970 C 269.947 201.946,273.600 199.392,273.600 199.124 C 273.600 198.704,273.659 198.673,271.800 200.055 M128.814 200.558 C 130.064 201.749,133.867 203.616,133.867 203.039 C 133.867 202.729,133.656 202.557,133.399 202.656 C 133.142 202.754,131.984 202.197,130.826 201.417 C 128.646 199.951,127.796 199.587,128.814 200.558 M174.000 203.400 C 173.420 203.732,173.252 203.972,173.600 203.973 C 173.930 203.974,174.549 203.710,174.976 203.387 C 175.964 202.640,175.315 202.648,174.000 203.400 M169.100 204.881 C 168.275 205.100,167.600 205.421,167.600 205.594 C 167.600 205.766,166.565 206.024,165.300 206.166 C 160.282 206.728,159.698 206.868,160.752 207.259 C 161.303 207.464,161.892 207.463,162.152 207.258 C 162.398 207.064,163.721 206.782,165.090 206.633 C 166.460 206.484,168.080 206.102,168.690 205.784 C 169.301 205.465,170.205 205.204,170.700 205.202 C 171.195 205.201,171.600 205.020,171.600 204.800 C 171.600 204.328,171.124 204.344,169.100 204.881 M230.346 205.016 C 231.086 205.337,231.806 205.594,231.946 205.586 C 232.466 205.557,230.176 204.428,229.600 204.430 C 229.270 204.431,229.606 204.694,230.346 205.016 M262.688 204.785 C 261.856 204.946,260.776 205.291,260.288 205.551 C 259.799 205.811,257.510 206.265,255.200 206.561 C 252.890 206.856,251.646 207.121,252.436 207.149 C 254.900 207.237,260.569 206.339,261.231 205.756 C 261.579 205.450,262.423 205.200,263.108 205.200 C 263.793 205.200,264.464 205.020,264.600 204.800 C 264.871 204.362,264.871 204.362,262.688 204.785 M139.600 205.680 C 141.030 206.131,142.920 206.589,143.800 206.698 C 144.680 206.808,145.515 207.079,145.656 207.301 C 145.815 207.551,146.501 207.585,147.456 207.390 C 148.918 207.091,148.821 207.048,145.600 206.574 C 143.730 206.299,141.300 205.789,140.200 205.441 C 139.100 205.093,137.930 204.820,137.600 204.835 C 137.270 204.849,138.170 205.230,139.600 205.680 M165.000 205.200 C 164.229 205.531,164.231 205.545,165.076 205.572 C 165.558 205.587,166.064 205.420,166.200 205.200 C 166.492 204.727,166.101 204.727,165.000 205.200 M237.400 206.823 C 238.280 207.005,239.810 207.144,240.800 207.131 L 242.600 207.108 241.000 206.777 C 240.120 206.595,238.590 206.456,237.600 206.469 L 235.800 206.492 237.400 206.823 M152.700 207.493 C 153.635 207.577,155.165 207.577,156.100 207.493 C 157.035 207.409,156.270 207.340,154.400 207.340 C 152.530 207.340,151.765 207.409,152.700 207.493 M245.900 207.493 C 246.835 207.577,248.365 207.577,249.300 207.493 C 250.235 207.409,249.470 207.340,247.600 207.340 C 245.730 207.340,244.965 207.409,245.900 207.493 M177.800 229.789 C 177.580 229.858,176.002 230.225,174.294 230.605 C 172.585 230.985,171.105 231.431,171.003 231.595 C 170.902 231.759,172.030 231.557,173.509 231.146 C 175.115 230.700,177.296 230.425,178.916 230.464 C 180.529 230.503,181.820 230.340,182.096 230.064 C 182.530 229.630,179.021 229.405,177.800 229.789 M213.400 230.000 C 213.245 230.250,214.070 230.400,215.600 230.400 C 217.130 230.400,217.955 230.250,217.800 230.000 C 217.664 229.780,216.674 229.600,215.600 229.600 C 214.526 229.600,213.536 229.780,213.400 230.000 M183.300 230.276 C 183.685 230.376,184.315 230.376,184.700 230.276 C 185.085 230.175,184.770 230.093,184.000 230.093 C 183.230 230.093,182.915 230.175,183.300 230.276 M208.600 230.800 C 207.581 231.238,208.632 231.238,210.000 230.800 C 210.804 230.543,210.843 230.477,210.200 230.468 C 209.760 230.462,209.040 230.611,208.600 230.800 M221.600 230.800 C 222.968 231.238,224.019 231.238,223.000 230.800 C 222.560 230.611,221.840 230.462,221.400 230.468 C 220.757 230.477,220.796 230.543,221.600 230.800 M205.800 232.027 C 205.140 232.450,204.805 232.797,205.056 232.798 C 205.306 232.799,205.936 232.446,206.456 232.013 C 207.645 231.023,207.359 231.029,205.800 232.027 M224.400 231.564 C 224.730 231.750,225.450 232.023,226.000 232.168 L 227.000 232.433 226.000 231.831 C 225.450 231.499,224.730 231.227,224.400 231.226 C 223.867 231.225,223.867 231.262,224.400 231.564 M165.861 233.846 C 164.794 234.401,163.998 234.931,164.090 235.024 C 164.273 235.206,168.400 233.234,168.400 232.964 C 168.400 232.636,167.761 232.857,165.861 233.846 M194.642 235.700 C 198.191 239.081,199.721 239.625,199.568 237.451 C 199.549 237.168,199.462 237.186,199.335 237.500 C 198.915 238.541,197.610 237.916,194.954 235.400 C 193.445 233.970,192.072 232.800,191.904 232.800 C 191.735 232.800,192.967 234.105,194.642 235.700 M226.224 233.387 C 227.239 234.156,227.834 234.163,227.200 233.400 C 226.926 233.070,226.420 232.800,226.075 232.800 C 225.572 232.800,225.602 232.917,226.224 233.387 M228.574 233.158 C 228.697 233.358,229.380 233.724,230.090 233.971 C 231.588 234.494,231.135 233.979,229.475 233.273 C 228.856 233.009,228.450 232.958,228.574 233.158 M201.700 235.041 C 200.765 235.825,200.006 236.676,200.013 236.933 C 200.020 237.190,200.425 236.950,200.913 236.400 C 201.402 235.850,202.320 234.995,202.955 234.500 C 203.589 234.005,203.949 233.604,203.754 233.608 C 203.559 233.612,202.635 234.257,201.700 235.041 M161.538 236.327 C 157.300 238.770,154.414 240.618,154.407 240.892 C 154.403 241.052,155.615 240.399,157.100 239.439 C 158.585 238.480,160.655 237.294,161.700 236.803 C 162.745 236.313,163.600 235.752,163.600 235.556 C 163.600 235.110,163.738 235.058,161.538 236.327 M233.883 235.936 C 234.369 236.411,234.941 236.800,235.155 236.800 C 235.368 236.800,235.781 237.032,236.071 237.315 C 236.362 237.598,237.320 238.264,238.200 238.794 C 239.080 239.324,239.890 239.861,240.000 239.987 C 240.110 240.113,240.740 240.435,241.400 240.702 C 242.757 241.251,242.727 241.228,238.673 238.592 C 234.115 235.629,232.856 234.931,233.883 235.936 M112.866 241.793 C 111.524 242.533,110.905 243.200,111.563 243.200 C 111.863 243.200,111.988 243.455,111.855 243.800 C 111.715 244.165,111.855 244.400,112.213 244.400 C 112.932 244.400,112.966 243.936,112.300 243.230 C 111.897 242.803,111.914 242.735,112.389 242.880 C 112.713 242.978,113.086 243.496,113.218 244.030 C 113.450 244.967,113.466 244.959,113.673 243.800 C 113.790 243.140,114.022 242.285,114.186 241.900 C 114.531 241.094,114.185 241.066,112.866 241.793 M151.814 242.446 C 149.748 243.999,149.513 244.289,151.026 243.419 C 152.716 242.448,154.284 241.214,153.800 241.236 C 153.580 241.246,152.686 241.791,151.814 242.446 M242.991 241.586 C 243.158 241.856,244.579 242.902,246.148 243.910 C 247.716 244.918,249.090 245.866,249.200 246.017 C 249.310 246.168,249.850 246.425,250.400 246.588 C 250.992 246.764,250.584 246.346,249.400 245.564 C 248.300 244.837,246.340 243.534,245.043 242.668 C 243.747 241.802,242.824 241.315,242.991 241.586 M282.440 241.937 C 282.539 243.578,283.118 244.684,283.160 243.313 C 283.189 242.367,283.353 242.084,283.775 242.246 C 284.091 242.367,284.300 242.676,284.240 242.933 C 284.180 243.190,284.211 243.252,284.309 243.071 C 284.560 242.604,286.263 245.213,286.768 246.838 L 287.191 248.200 286.960 246.600 C 286.585 244.008,282.298 239.585,282.440 241.937 M110.184 244.569 C 109.834 245.102,109.479 246.587,109.395 247.869 C 109.251 250.052,109.261 250.086,109.561 248.400 C 109.737 247.410,110.180 245.925,110.546 245.100 C 111.302 243.394,111.124 243.133,110.184 244.569 M148.400 244.600 C 148.126 244.930,147.727 245.200,147.514 245.200 C 147.301 245.200,146.669 245.560,146.109 246.000 C 145.550 246.440,145.274 246.800,145.497 246.800 C 145.720 246.800,146.126 246.530,146.400 246.200 C 146.674 245.870,147.073 245.600,147.286 245.600 C 147.499 245.600,148.131 245.240,148.691 244.800 C 149.250 244.360,149.526 244.000,149.303 244.000 C 149.080 244.000,148.674 244.270,148.400 244.600 M282.986 246.900 C 282.718 248.506,281.546 250.672,280.620 251.273 C 280.389 251.423,279.840 251.828,279.400 252.174 L 278.600 252.802 279.400 252.539 C 281.477 251.856,285.169 245.200,283.470 245.200 C 283.360 245.200,283.143 245.965,282.986 246.900 M142.000 248.457 C 140.570 249.332,139.822 249.930,140.338 249.785 C 141.271 249.523,144.800 247.299,144.800 246.972 C 144.800 246.736,144.906 246.680,142.000 248.457 M195.832 247.548 C 195.714 247.740,195.044 248.011,194.344 248.151 C 193.645 248.291,193.168 248.501,193.285 248.618 C 193.402 248.735,194.274 248.564,195.222 248.237 C 196.170 247.910,197.121 247.751,197.335 247.883 C 197.550 248.016,197.596 247.917,197.438 247.662 C 197.102 247.118,196.140 247.050,195.832 247.548 M201.200 248.101 C 202.630 248.627,205.654 250.011,207.920 251.176 C 210.185 252.341,212.111 253.222,212.200 253.134 C 212.542 252.791,201.630 247.557,200.158 247.357 C 198.871 247.182,199.053 247.312,201.200 248.101 M254.000 248.810 C 254.000 249.024,254.336 249.200,254.746 249.200 C 255.156 249.200,255.950 249.560,256.509 250.000 C 257.069 250.440,257.710 250.800,257.935 250.800 C 258.159 250.800,258.624 251.081,258.967 251.424 C 259.311 251.768,260.269 252.140,261.096 252.250 C 262.392 252.423,262.222 252.285,259.871 251.251 C 258.371 250.591,256.925 249.870,256.658 249.648 C 255.828 248.959,254.000 248.383,254.000 248.810 M113.602 248.914 C 113.597 249.661,115.018 251.289,116.159 251.845 L 117.400 252.448 116.401 251.648 C 115.852 251.208,114.998 250.342,114.503 249.724 C 114.009 249.106,113.603 248.741,113.602 248.914 M191.376 249.380 C 190.627 249.940,190.632 249.952,191.506 249.732 C 192.005 249.606,192.510 249.345,192.630 249.152 C 192.968 248.604,192.236 248.738,191.376 249.380 M138.000 250.600 C 137.450 250.914,136.773 251.178,136.496 251.186 C 136.218 251.194,135.228 251.551,134.296 251.981 C 131.115 253.445,123.986 253.902,119.200 252.949 C 118.299 252.769,118.274 252.796,118.949 253.222 C 120.634 254.285,131.886 254.001,133.358 252.859 C 134.133 252.257,135.555 252.069,135.749 252.542 C 135.852 252.794,135.951 252.685,135.968 252.300 C 135.986 251.915,136.315 251.596,136.700 251.591 C 137.085 251.586,137.850 251.230,138.400 250.800 C 139.575 249.881,139.406 249.796,138.000 250.600 M109.200 251.776 C 109.200 252.533,109.338 253.238,109.507 253.343 C 109.676 253.447,109.748 252.828,109.665 251.966 C 109.481 250.032,109.200 249.918,109.200 251.776 M286.641 251.200 C 286.449 251.750,286.153 252.290,285.983 252.401 C 285.812 252.512,285.769 253.103,285.886 253.716 L 286.099 254.831 286.669 253.733 C 286.982 253.129,287.183 252.087,287.114 251.417 C 286.990 250.203,286.990 250.202,286.641 251.200 M186.167 251.546 C 186.281 251.731,185.907 252.096,185.336 252.356 C 184.764 252.617,184.393 252.926,184.511 253.044 C 184.718 253.251,187.200 252.132,187.200 251.833 C 187.200 251.752,186.921 251.578,186.579 251.447 C 186.238 251.316,186.052 251.361,186.167 251.546 M212.800 253.137 C 212.800 253.900,216.891 255.699,217.264 255.101 C 217.488 254.742,217.129 254.536,216.003 254.375 C 215.137 254.251,214.062 253.818,213.614 253.413 C 213.159 253.001,212.800 252.879,212.800 253.137 M182.349 253.865 C 181.847 254.474,181.885 254.487,182.800 254.011 C 184.141 253.314,184.242 253.200,183.516 253.200 C 183.176 253.200,182.651 253.499,182.349 253.865 M273.800 253.600 C 273.096 253.902,273.135 253.947,274.124 253.972 C 274.776 253.988,275.144 253.832,275.000 253.600 C 274.864 253.380,274.718 253.213,274.676 253.228 C 274.634 253.244,274.240 253.411,273.800 253.600 M267.700 253.876 C 268.085 253.976,268.715 253.976,269.100 253.876 C 269.485 253.775,269.170 253.693,268.400 253.693 C 267.630 253.693,267.315 253.775,267.700 253.876 M217.602 255.890 C 217.599 256.014,221.102 257.600,221.378 257.600 C 221.500 257.600,221.600 257.420,221.600 257.200 C 221.600 256.980,221.240 256.800,220.800 256.800 C 219.915 256.800,219.716 256.181,220.500 255.866 C 220.775 255.755,220.236 255.695,219.302 255.733 C 218.368 255.770,217.603 255.841,217.602 255.890 M111.076 256.600 C 111.918 259.011,120.482 264.827,123.136 264.791 C 123.501 264.786,123.170 264.499,122.400 264.153 C 117.400 261.905,114.246 260.129,113.481 259.129 C 111.437 256.459,110.788 255.777,111.076 256.600 M175.300 257.025 C 174.145 257.553,173.200 258.076,173.200 258.187 C 173.200 258.390,177.596 256.538,177.947 256.187 C 178.356 255.778,177.295 256.114,175.300 257.025 M222.170 257.952 C 222.290 258.145,222.795 258.406,223.294 258.532 C 224.168 258.752,224.173 258.740,223.424 258.180 C 222.564 257.538,221.832 257.404,222.170 257.952 M282.650 259.323 C 281.797 260.161,280.867 260.758,280.583 260.649 C 280.152 260.483,279.600 261.157,279.600 261.847 C 279.600 262.109,281.294 261.163,281.890 260.568 C 282.168 260.289,282.864 259.693,283.435 259.244 C 284.007 258.794,284.413 258.285,284.338 258.113 C 284.262 257.941,283.502 258.486,282.650 259.323 M170.000 259.400 C 169.450 259.714,169.180 259.972,169.400 259.972 C 169.620 259.972,170.250 259.714,170.800 259.400 C 171.350 259.086,171.620 258.828,171.400 258.828 C 171.180 258.828,170.550 259.086,170.000 259.400 M225.400 259.302 C 226.164 259.758,226.840 260.030,232.105 262.000 C 233.374 262.475,234.634 262.776,234.905 262.669 C 235.177 262.562,234.815 262.345,234.100 262.187 C 233.385 262.029,232.800 261.743,232.800 261.550 C 232.800 261.358,232.342 261.200,231.783 261.200 C 231.224 261.200,229.612 260.660,228.200 260.000 C 225.685 258.824,223.820 258.359,225.400 259.302 M165.700 260.996 C 164.985 261.307,164.400 261.651,164.400 261.760 C 164.400 261.952,167.228 260.878,167.567 260.558 C 167.916 260.227,166.947 260.454,165.700 260.996 M162.000 262.400 C 161.467 262.745,161.467 262.788,162.000 262.788 C 162.330 262.788,162.870 262.613,163.200 262.400 C 163.733 262.055,163.733 262.012,163.200 262.012 C 162.870 262.012,162.330 262.187,162.000 262.400 M237.200 263.570 C 237.530 263.766,238.520 264.037,239.400 264.171 C 240.463 264.333,240.731 264.298,240.200 264.068 C 239.024 263.558,236.465 263.134,237.200 263.570 M155.400 264.211 C 154.520 264.501,154.070 264.750,154.400 264.763 C 154.730 264.777,155.810 264.533,156.800 264.221 C 157.790 263.909,158.240 263.660,157.800 263.669 C 157.360 263.677,156.280 263.921,155.400 264.211 M247.600 264.855 C 247.600 265.173,246.914 265.230,245.320 265.042 C 244.067 264.895,243.135 264.869,243.251 264.984 C 243.539 265.272,250.470 266.463,250.674 266.260 C 250.764 266.170,250.184 265.973,249.385 265.824 C 248.348 265.629,247.996 265.387,248.154 264.976 C 248.275 264.659,248.201 264.400,247.987 264.400 C 247.774 264.400,247.600 264.605,247.600 264.855 M270.485 265.096 C 268.882 265.430,267.662 265.796,267.775 265.908 C 268.023 266.156,272.755 265.218,273.600 264.754 C 274.382 264.324,273.983 264.368,270.485 265.096 M125.400 265.376 C 126.280 265.686,127.369 265.952,127.820 265.969 C 128.271 265.986,128.843 266.203,129.091 266.451 C 129.371 266.731,129.968 266.786,130.671 266.595 C 131.831 266.280,131.334 266.141,125.200 265.061 C 123.824 264.818,123.827 264.824,125.400 265.376 M149.200 265.600 C 148.725 265.907,148.808 265.988,149.600 265.988 C 150.150 265.988,150.870 265.813,151.200 265.600 C 151.675 265.293,151.592 265.212,150.800 265.212 C 150.250 265.212,149.530 265.387,149.200 265.600 M146.332 266.202 C 146.221 266.313,142.929 266.411,139.017 266.421 C 135.105 266.430,132.016 266.549,132.151 266.685 C 132.450 266.984,146.419 266.915,146.720 266.613 C 146.838 266.496,146.843 266.310,146.733 266.200 C 146.623 266.090,146.443 266.091,146.332 266.202 M259.200 266.400 L 251.800 266.627 259.276 266.714 C 263.925 266.767,266.846 266.649,267.000 266.400 C 267.136 266.180,267.102 266.039,266.924 266.086 C 266.746 266.134,263.270 266.275,259.200 266.400 " stroke="none" fill="#381907" fill-rule="evenodd"></path><path id="path4" d="M115.383 160.569 C 114.942 161.243,114.787 162.234,114.874 163.823 C 114.969 165.541,114.851 166.186,114.400 166.425 C 113.620 166.838,112.307 167.338,111.800 167.416 C 109.792 167.725,106.614 169.552,105.200 171.212 C 104.430 172.116,103.485 173.153,103.100 173.516 C 102.715 173.880,102.399 174.363,102.398 174.589 C 102.396 174.815,102.124 175.520,101.792 176.155 C 101.075 177.530,100.922 183.630,101.562 185.306 C 103.097 189.323,108.395 194.000,111.410 194.000 C 112.093 194.000,112.350 194.158,112.161 194.463 C 111.947 194.809,113.073 194.852,116.638 194.634 C 122.998 194.244,122.800 194.266,122.800 193.957 C 122.800 193.537,121.576 193.167,121.119 193.450 C 120.894 193.589,120.583 193.496,120.426 193.243 C 120.219 192.907,119.403 192.888,117.392 193.173 C 115.150 193.490,114.401 193.448,113.344 192.947 C 112.631 192.608,111.721 192.433,111.324 192.557 C 109.567 193.105,104.000 189.079,104.000 187.261 C 104.000 187.029,103.685 186.663,103.300 186.447 C 102.164 185.811,102.511 177.721,103.791 174.996 C 105.145 172.115,110.000 168.553,110.000 170.442 C 110.000 170.639,109.834 170.800,109.632 170.800 C 109.429 170.800,109.145 171.338,109.001 171.995 C 108.857 172.653,108.584 173.286,108.395 173.403 C 107.890 173.715,106.850 175.917,107.093 176.159 C 107.207 176.273,108.052 175.537,108.970 174.522 C 110.743 172.564,114.084 171.531,115.273 172.573 C 115.542 172.808,115.516 172.677,115.217 172.282 C 114.917 171.887,114.414 171.663,114.099 171.783 C 113.751 171.917,113.446 171.699,113.324 171.229 C 113.204 170.771,112.894 170.543,112.564 170.669 C 112.257 170.787,111.894 170.590,111.757 170.231 C 111.563 169.726,111.382 169.683,110.953 170.039 C 110.550 170.373,110.400 170.376,110.400 170.049 C 110.400 169.802,110.557 169.600,110.750 169.600 C 110.942 169.600,112.087 168.868,113.294 167.974 L 115.489 166.348 115.735 163.717 C 115.870 162.270,116.080 160.987,116.202 160.865 C 116.323 160.743,123.111 160.580,131.285 160.501 C 139.459 160.422,146.429 160.193,146.773 159.991 C 147.161 159.764,141.413 159.620,131.709 159.612 L 116.018 159.600 115.383 160.569 M149.800 160.055 C 151.120 160.247,160.652 160.410,170.983 160.416 C 181.314 160.422,190.190 160.533,190.708 160.663 L 191.650 160.899 191.430 167.150 C 191.173 174.436,190.286 182.274,189.646 182.914 C 189.401 183.159,189.200 183.782,189.200 184.298 C 189.200 184.814,188.741 185.695,188.181 186.255 C 187.614 186.823,187.024 188.011,186.851 188.937 C 186.436 191.157,185.518 193.000,184.828 193.000 C 184.520 193.000,183.712 193.763,183.034 194.697 C 182.355 195.630,180.976 197.010,179.968 197.763 C 178.960 198.516,177.831 199.598,177.459 200.166 C 177.028 200.823,176.416 201.200,175.778 201.200 C 175.226 201.200,174.677 201.456,174.557 201.769 C 174.256 202.552,172.460 203.154,167.200 204.233 C 165.481 204.586,163.018 205.332,162.600 205.626 C 161.448 206.439,142.945 205.734,141.222 204.812 C 140.832 204.603,139.813 204.387,138.957 204.332 C 137.913 204.265,137.168 203.940,136.695 203.346 C 136.307 202.860,135.452 202.343,134.795 202.199 C 134.138 202.055,133.600 201.800,133.600 201.632 C 133.600 201.465,132.855 201.082,131.945 200.782 C 130.895 200.435,129.557 199.461,128.287 198.118 C 127.185 196.953,126.097 196.000,125.868 196.000 C 125.639 196.000,125.036 195.609,124.527 195.132 C 124.019 194.654,123.492 194.375,123.356 194.510 C 123.124 194.743,128.060 200.000,128.510 200.000 C 128.625 200.000,129.667 200.638,130.826 201.417 C 131.984 202.197,133.182 202.739,133.487 202.622 C 133.792 202.505,133.937 202.578,133.810 202.785 C 133.260 203.674,139.618 205.654,146.200 206.641 C 152.049 207.519,166.840 206.802,167.600 205.604 C 167.873 205.174,170.751 204.405,172.100 204.402 C 172.705 204.401,173.200 204.242,173.200 204.049 C 173.200 203.855,173.785 203.461,174.500 203.172 C 175.215 202.883,175.944 202.411,176.120 202.123 C 176.296 201.836,176.701 201.600,177.020 201.600 C 177.339 201.600,177.600 201.432,177.600 201.227 C 177.600 201.022,177.915 200.754,178.300 200.631 C 179.826 200.145,186.389 193.100,186.409 191.927 C 186.414 191.637,186.770 190.950,187.200 190.400 C 187.630 189.850,187.986 189.169,187.991 188.886 C 187.996 188.603,188.270 187.960,188.600 187.456 C 189.678 185.811,191.265 180.664,191.640 177.600 C 191.842 175.950,192.098 174.060,192.209 173.400 C 193.046 168.423,193.440 161.492,192.957 160.233 C 192.739 159.665,190.380 159.605,170.057 159.652 C 155.340 159.687,148.241 159.828,149.800 160.055 M207.867 159.867 C 207.131 160.603,208.273 175.242,209.391 179.400 C 212.741 191.863,216.318 197.062,225.224 202.414 C 227.041 203.506,228.868 204.400,229.284 204.400 C 229.700 204.400,230.552 204.665,231.178 204.989 C 231.804 205.312,233.055 205.695,233.958 205.840 C 234.861 205.984,235.600 206.214,235.600 206.351 C 235.600 206.488,236.635 206.622,237.900 206.648 C 239.165 206.675,242.180 206.830,244.600 206.993 C 249.572 207.328,258.702 206.421,260.666 205.396 C 261.290 205.071,262.178 204.804,262.640 204.802 C 263.964 204.799,266.039 203.965,268.049 202.629 C 273.294 199.144,274.572 198.136,275.733 196.567 C 277.612 194.030,278.129 193.849,281.493 194.551 C 284.544 195.187,289.320 195.014,288.328 194.303 C 287.947 194.030,288.009 193.992,288.549 194.168 C 290.654 194.854,296.605 190.278,298.430 186.570 C 300.123 183.132,299.120 172.800,297.095 172.800 C 296.919 172.800,296.204 172.149,295.505 171.353 C 294.045 169.690,291.935 168.276,290.200 167.797 C 288.837 167.420,288.878 167.433,287.800 167.037 C 285.966 166.362,285.819 166.157,285.942 164.444 C 286.009 163.519,285.944 162.051,285.797 161.181 L 285.530 159.600 246.832 159.600 C 225.548 159.600,208.013 159.720,207.867 159.867 M281.666 160.667 C 284.182 160.893,285.171 162.069,284.636 164.201 C 284.444 164.966,284.626 165.462,285.372 166.208 C 285.917 166.754,286.262 167.200,286.138 167.200 C 286.013 167.200,286.330 167.539,286.843 167.954 C 287.355 168.369,287.984 168.628,288.240 168.529 C 289.678 167.978,293.017 169.642,294.400 171.600 C 295.170 172.690,295.920 173.586,296.067 173.591 C 299.226 173.697,298.532 188.711,295.364 188.789 C 295.125 188.795,294.723 189.251,294.472 189.802 C 293.596 191.725,286.159 194.226,283.275 193.568 C 280.059 192.833,275.581 194.331,274.867 196.380 C 274.555 197.274,274.190 197.600,273.499 197.600 C 272.947 197.600,271.995 198.180,271.200 199.000 C 270.454 199.770,269.643 200.400,269.399 200.400 C 268.716 200.400,266.201 202.372,266.190 202.916 C 266.184 203.220,265.674 203.359,264.818 203.289 C 263.603 203.189,259.551 204.225,257.400 205.184 C 254.786 206.351,238.985 206.482,237.128 205.352 C 236.978 205.261,235.922 205.166,234.781 205.140 C 233.085 205.102,232.457 204.875,231.343 203.896 C 230.209 202.900,229.744 202.737,228.581 202.926 C 227.811 203.050,227.267 203.015,227.371 202.848 C 227.669 202.365,226.368 201.447,224.229 200.631 C 222.286 199.890,220.437 198.276,220.413 197.300 C 220.406 197.025,220.255 196.800,220.077 196.800 C 219.583 196.800,217.200 194.734,217.200 194.306 C 217.200 193.719,215.087 191.623,214.723 191.848 C 214.290 192.115,213.649 190.362,213.529 188.580 C 213.476 187.790,213.290 187.056,213.116 186.948 C 212.942 186.841,212.800 186.410,212.800 185.990 C 212.800 185.571,212.472 185.052,212.070 184.838 C 211.173 184.357,210.400 181.904,210.400 179.534 C 210.400 178.558,210.236 177.589,210.036 177.380 C 209.835 177.171,209.569 175.200,209.444 173.000 C 209.319 170.800,209.098 167.338,208.954 165.306 C 208.763 162.625,208.827 161.449,209.187 161.016 C 209.681 160.421,275.397 160.105,281.666 160.667 M287.120 171.658 C 286.834 171.839,286.195 171.991,285.700 171.994 C 285.205 171.997,284.785 172.135,284.767 172.300 C 284.393 175.665,283.994 177.082,283.223 177.779 C 282.658 178.291,282.395 179.257,282.203 181.534 C 282.061 183.220,281.833 184.870,281.697 185.200 C 281.561 185.530,281.438 186.160,281.425 186.600 C 281.408 187.133,281.167 187.361,280.700 187.282 C 279.867 187.143,279.748 188.328,280.500 189.281 C 281.152 190.108,285.439 190.826,287.220 190.407 C 288.863 190.020,288.314 189.895,284.718 189.839 C 281.575 189.789,280.901 189.347,281.495 187.722 C 281.721 187.105,282.190 185.610,282.538 184.400 C 282.885 183.190,283.439 181.288,283.769 180.174 C 284.098 179.059,284.585 176.832,284.851 175.225 L 285.333 172.302 287.447 172.520 C 290.231 172.807,293.320 175.600,293.969 178.416 C 294.498 180.709,294.513 183.483,294.000 183.800 C 293.780 183.936,293.600 184.360,293.600 184.742 C 293.600 185.667,290.953 188.207,289.200 188.964 L 287.800 189.569 289.451 189.584 C 290.447 189.594,291.300 189.362,291.600 189.000 C 291.874 188.670,291.964 188.400,291.800 188.400 C 291.636 188.400,291.730 188.126,292.008 187.790 C 292.286 187.455,292.594 187.260,292.691 187.358 C 293.495 188.161,296.460 183.452,295.958 182.170 C 295.792 181.747,295.644 180.725,295.628 179.900 C 295.608 178.810,295.427 178.400,294.967 178.400 C 294.618 178.400,294.414 178.175,294.513 177.900 C 295.425 175.356,289.361 170.236,287.120 171.658 M115.723 175.400 C 115.887 176.497,116.562 179.097,118.135 184.690 C 118.458 185.839,119.011 187.068,119.365 187.422 C 119.718 187.775,119.888 188.258,119.742 188.494 C 119.585 188.749,119.664 188.807,119.938 188.638 C 120.554 188.257,120.528 186.935,119.900 186.693 C 119.082 186.378,118.156 182.666,118.024 179.175 C 118.011 178.832,117.640 178.164,117.200 177.692 C 116.760 177.220,116.397 176.511,116.394 176.117 C 116.391 175.723,116.198 175.130,115.966 174.800 C 115.640 174.338,115.585 174.476,115.723 175.400 M105.843 177.433 C 104.701 180.409,106.346 188.800,108.071 188.800 C 108.289 188.800,109.757 189.312,111.333 189.939 C 114.427 191.168,117.463 191.345,118.031 190.330 C 118.289 189.870,117.824 189.769,115.473 189.774 C 108.742 189.789,104.460 183.591,106.994 177.500 C 107.196 177.015,107.101 176.800,106.686 176.800 C 106.356 176.800,105.976 177.085,105.843 177.433 M166.200 205.200 C 166.064 205.420,165.558 205.587,165.076 205.572 C 164.231 205.545,164.229 205.531,165.000 205.200 C 166.101 204.727,166.492 204.727,166.200 205.200 M181.847 230.286 C 181.711 230.422,180.475 230.494,179.100 230.446 C 175.297 230.313,164.947 233.775,163.600 235.631 C 163.490 235.782,162.208 236.537,160.751 237.308 C 159.295 238.079,156.505 239.784,154.551 241.095 C 152.598 242.407,150.460 243.783,149.800 244.153 C 149.140 244.522,148.060 245.177,147.400 245.608 C 146.740 246.039,145.930 246.517,145.600 246.671 C 145.270 246.825,144.180 247.523,143.177 248.224 C 142.175 248.924,140.915 249.634,140.377 249.801 C 139.840 249.968,138.922 250.441,138.338 250.852 C 137.754 251.264,136.989 251.600,136.638 251.600 C 136.287 251.600,135.986 251.915,135.968 252.300 C 135.951 252.685,135.852 252.794,135.749 252.542 C 135.555 252.069,134.133 252.257,133.358 252.859 C 132.563 253.476,126.296 254.106,123.000 253.901 C 116.598 253.501,113.602 251.098,113.281 246.105 C 113.015 241.951,111.974 241.687,110.441 245.385 C 107.623 252.186,111.173 259.202,119.199 262.692 C 120.409 263.218,121.698 263.809,122.063 264.004 C 126.173 266.210,144.118 267.330,149.200 265.697 C 149.970 265.450,152.310 264.871,154.400 264.410 C 158.817 263.436,163.288 262.154,165.000 261.370 C 165.660 261.068,167.460 260.342,169.000 259.757 C 170.540 259.172,172.964 258.155,174.387 257.498 C 175.809 256.841,177.609 256.078,178.387 255.802 C 179.164 255.527,180.430 254.920,181.200 254.454 C 181.970 253.988,182.870 253.498,183.200 253.365 C 184.973 252.649,186.328 251.807,186.155 251.527 C 186.047 251.352,186.218 251.309,186.535 251.430 C 186.852 251.552,188.706 250.830,190.656 249.827 C 192.605 248.823,194.504 248.001,194.876 248.001 C 195.248 248.000,195.673 247.805,195.820 247.568 C 195.967 247.330,196.518 247.243,197.044 247.375 C 197.675 247.534,198.002 247.442,198.006 247.108 C 198.010 246.795,198.125 246.753,198.306 247.000 C 198.468 247.220,199.270 247.420,200.088 247.445 C 201.081 247.474,203.441 248.440,207.188 250.352 C 210.275 251.926,212.800 253.108,212.800 252.978 C 212.800 252.848,213.274 253.115,213.854 253.571 C 214.454 254.043,215.498 254.400,216.278 254.400 C 217.181 254.400,217.554 254.551,217.372 254.845 C 216.946 255.535,218.054 256.007,219.600 255.793 C 220.370 255.686,220.775 255.704,220.500 255.833 C 219.736 256.190,219.905 256.800,220.767 256.800 C 221.188 256.800,221.593 256.935,221.667 257.100 C 221.862 257.540,224.369 258.800,225.049 258.800 C 225.370 258.800,226.788 259.340,228.200 260.000 C 229.612 260.660,231.224 261.200,231.783 261.200 C 232.342 261.200,232.800 261.336,232.800 261.503 C 232.800 261.669,233.565 262.054,234.500 262.359 C 241.044 264.489,247.600 265.737,247.600 264.852 C 247.600 264.603,247.774 264.400,247.987 264.400 C 248.201 264.400,248.277 264.654,248.158 264.965 C 247.490 266.705,263.460 266.925,270.356 265.270 C 274.688 264.230,279.508 262.120,279.824 261.125 C 279.943 260.749,280.281 260.533,280.574 260.645 C 282.024 261.202,286.317 255.317,285.842 253.425 C 285.701 252.861,285.739 252.400,285.928 252.400 C 287.630 252.400,287.251 246.869,285.354 244.002 C 283.621 241.383,283.227 241.600,283.302 245.134 C 283.382 248.887,282.184 251.100,279.200 252.715 C 276.801 254.012,269.146 254.463,266.119 253.484 C 265.063 253.143,263.157 252.674,261.882 252.442 C 260.606 252.210,259.289 251.746,258.953 251.410 C 258.617 251.075,258.159 250.800,257.935 250.800 C 257.710 250.800,257.069 250.440,256.509 250.000 C 255.950 249.560,255.171 249.200,254.779 249.200 C 254.387 249.200,254.007 249.065,253.933 248.900 C 253.711 248.400,251.450 246.933,250.392 246.602 C 249.847 246.432,249.310 246.168,249.200 246.017 C 248.923 245.636,243.412 241.975,241.647 241.000 C 240.851 240.560,240.110 240.100,240.000 239.979 C 239.890 239.857,239.080 239.324,238.200 238.794 C 237.320 238.264,236.362 237.598,236.071 237.315 C 235.781 237.032,235.286 236.800,234.971 236.800 C 234.657 236.800,234.400 236.629,234.400 236.419 C 234.400 235.676,225.739 231.854,221.665 230.799 C 217.533 229.730,208.528 230.482,206.446 232.072 C 205.921 232.472,205.286 232.800,205.035 232.800 C 204.784 232.800,204.292 233.115,203.943 233.500 C 203.594 233.885,202.519 234.930,201.554 235.822 C 199.930 237.324,197.794 239.753,199.199 238.500 C 199.508 238.225,200.049 238.000,200.402 238.000 C 200.754 238.000,201.663 237.358,202.422 236.574 C 203.180 235.789,204.410 234.857,205.156 234.501 C 205.902 234.146,206.594 233.546,206.693 233.168 C 206.791 232.790,207.351 232.381,207.936 232.260 C 215.514 230.689,220.368 230.828,223.703 232.710 C 226.038 234.029,227.640 234.459,226.224 233.387 C 225.602 232.917,225.572 232.800,226.075 232.800 C 226.787 232.800,227.716 233.751,227.356 234.111 C 227.225 234.242,227.812 234.473,228.659 234.626 C 229.507 234.779,230.425 235.083,230.700 235.301 C 230.975 235.519,231.200 235.573,231.200 235.420 C 231.200 235.268,231.800 235.741,232.533 236.472 C 234.093 238.025,236.169 239.330,238.093 239.965 C 238.846 240.213,239.858 240.953,240.343 241.608 C 240.827 242.264,241.444 242.805,241.712 242.811 C 241.980 242.817,242.907 243.357,243.771 244.011 C 244.635 244.665,245.771 245.200,246.294 245.200 C 246.834 245.200,247.710 245.707,248.323 246.373 C 248.915 247.019,250.546 248.087,251.947 248.747 C 253.347 249.408,254.877 250.290,255.347 250.709 C 257.402 252.541,258.951 253.318,260.742 253.418 C 263.614 253.577,265.735 254.045,266.464 254.681 C 267.699 255.757,279.210 255.016,280.946 253.749 C 282.216 252.822,284.202 248.950,284.100 247.600 C 284.032 246.698,284.060 246.679,284.384 247.400 C 284.582 247.840,284.769 248.020,284.800 247.800 C 284.924 246.916,285.546 249.100,285.572 250.513 C 285.590 251.508,285.395 252.104,285.000 252.255 C 284.619 252.402,284.399 253.018,284.398 253.943 C 284.397 255.580,281.664 259.011,279.329 260.307 C 278.643 260.688,277.303 261.522,276.353 262.161 C 275.402 262.799,273.976 263.376,273.184 263.443 C 272.391 263.510,271.237 263.758,270.619 263.993 C 270.000 264.228,269.182 264.321,268.800 264.200 C 268.418 264.079,267.587 264.182,266.953 264.430 C 265.259 265.092,252.552 264.957,248.823 264.238 C 244.638 263.431,241.909 263.022,241.200 263.095 C 240.309 263.187,235.682 261.703,234.686 261.005 C 234.211 260.672,233.312 260.400,232.689 260.400 C 232.065 260.400,230.528 259.891,229.274 259.268 C 228.019 258.645,226.785 258.205,226.533 258.289 C 226.280 258.373,225.956 258.253,225.813 258.021 C 225.670 257.790,225.030 257.600,224.390 257.600 C 223.675 257.600,222.714 257.149,221.892 256.427 C 221.158 255.782,220.026 255.126,219.378 254.969 C 218.730 254.812,217.722 254.350,217.138 253.942 C 216.554 253.534,215.699 253.200,215.238 253.200 C 214.777 253.200,214.047 252.847,213.615 252.415 C 212.731 251.531,208.357 249.395,206.571 248.976 C 205.927 248.824,205.006 248.292,204.524 247.793 C 203.654 246.893,201.191 246.439,196.600 246.334 C 194.994 246.297,192.278 247.371,188.889 249.384 C 187.948 249.943,186.940 250.400,186.649 250.400 C 186.358 250.400,185.237 250.875,184.160 251.455 C 178.025 254.756,177.005 255.200,175.553 255.200 C 174.280 255.200,173.923 255.389,173.444 256.316 C 172.890 257.387,170.630 258.307,167.741 258.638 C 166.910 258.733,166.041 259.157,163.292 260.807 C 162.012 261.576,161.066 261.843,156.200 262.814 C 154.880 263.078,153.290 263.555,152.667 263.874 C 149.622 265.435,125.861 265.084,124.058 263.452 C 123.661 263.093,123.024 262.800,122.642 262.800 C 121.721 262.800,120.628 262.192,119.473 261.037 C 118.927 260.490,117.785 259.970,116.764 259.802 C 115.794 259.643,114.677 259.227,114.282 258.878 C 113.578 258.255,111.455 254.400,111.817 254.400 C 111.917 254.400,111.640 254.040,111.200 253.600 C 110.207 252.607,110.066 247.874,110.994 246.650 C 111.647 245.787,113.014 246.066,112.659 246.991 C 112.536 247.312,112.607 247.681,112.817 247.811 C 113.028 247.941,113.201 248.622,113.202 249.324 C 113.207 252.192,115.750 253.854,122.190 255.194 C 123.748 255.519,132.413 254.232,135.400 253.232 C 139.239 251.947,140.723 251.259,141.765 250.281 C 142.405 249.680,144.205 248.543,145.765 247.754 C 147.324 246.965,148.960 246.015,149.400 245.642 C 149.840 245.270,151.037 244.564,152.059 244.075 C 153.081 243.585,154.204 242.748,154.554 242.214 C 155.145 241.313,160.925 238.285,163.095 237.740 C 163.604 237.613,164.191 237.191,164.398 236.804 C 164.605 236.417,165.610 235.707,166.631 235.227 C 167.652 234.747,169.146 233.939,169.952 233.430 C 175.177 230.132,188.952 230.920,191.401 234.658 C 191.758 235.203,192.259 235.580,192.513 235.496 C 192.767 235.411,193.646 236.006,194.466 236.819 C 195.287 237.631,196.372 238.399,196.879 238.524 C 197.500 238.678,196.720 237.720,194.479 235.579 C 192.652 233.833,190.717 232.294,190.179 232.159 C 189.640 232.024,189.200 231.790,189.200 231.639 C 189.200 231.488,188.165 231.157,186.900 230.904 C 183.154 230.153,182.108 230.025,181.847 230.286 M112.800 244.024 C 112.800 244.231,112.536 244.400,112.213 244.400 C 111.856 244.400,111.715 244.165,111.854 243.802 C 112.091 243.187,112.800 243.353,112.800 244.024 " stroke="none" fill="#2c140a" fill-rule="evenodd"></path></g></svg>