<svg id="Layer_1" data-name="Layer 1" xmlns="http://www.w3.org/2000/svg" viewBox="0 0 135.33 114.13"><title>GCash logo - Brandlogos.net</title><path d="M301.23,384.14a64.85,64.85,0,0,1-7,29.49,6.56,6.56,0,0,0,2.33,8.54h0a6.53,6.53,0,0,0,9-2q.16-.25.29-.51a78.4,78.4,0,0,0,0-70.9,6.54,6.54,0,0,0-8.81-2.81l-.5.29h0a6.56,6.56,0,0,0-2.33,8.53A64.88,64.88,0,0,1,301.23,384.14Z" transform="translate(-179 -327.08)" style="fill:#51c1ff"/><path d="M280.06,384.14a43.85,43.85,0,0,1-4,18.4,6.55,6.55,0,0,0,2.46,8.28h0A6.56,6.56,0,0,0,288,408a57.4,57.4,0,0,0,0-47.68,6.56,6.56,0,0,0-9.45-2.82h0a6.55,6.55,0,0,0-2.46,8.28A43.85,43.85,0,0,1,280.06,384.14Z" transform="translate(-179 -327.08)" style="fill:#51c1ff"/><path d="M236.06,428.13a44,44,0,1,1,26.87-78.85,6.54,6.54,0,0,0,8.63-.53h0a6.53,6.53,0,0,0-.63-9.79,57.08,57.08,0,1,0,.09,90.3,6.44,6.44,0,0,0,.61-9.63l-.14-.14A6.45,6.45,0,0,0,263,419,43.82,43.82,0,0,1,236.06,428.13Z" transform="translate(-179 -327.08)" style="fill:#007cff"/><path d="M271.15,379.35a6.75,6.75,0,0,0-4.76-2h0l-31.35,0h0a6.77,6.77,0,1,0,0,13.53h23.59a23.52,23.52,0,1,1-10-26.75,6.78,6.78,0,0,0,8.4-1h0a6.75,6.75,0,0,0-1.14-10.45,37.36,37.36,0,0,0-27.8-4.88,36.55,36.55,0,0,0-28.24,28.48,37.08,37.08,0,1,0,73.34,7.78A6.78,6.78,0,0,0,271.15,379.35Z" transform="translate(-179 -327.08)" style="fill:#002cb8"/></svg>